M48
INCH,TZ
T1C0.0118
T2C0.0276
T3C0.0315
T4C0.0354
T5C0.0394
T6C0.0433
T7C0.0520
T8C0.1260
%
G90
G05
T1
X11231Y-30750
X11417Y-31496
X11811Y-24606
X11811Y-25591
X13189Y-24606
X13189Y-25591
X14370Y-11614
X14370Y-12598
X14370Y-17520
X14685Y-10748
X14961Y-18307
X15354Y-11417
X15368Y-16325
X15375Y-17283
X17400Y-19805
X17520Y-20276
X17795Y-20562
X18031Y-20817
X18110Y-17126
X18268Y-21063
X19398Y-26625
X19429Y-21833
X19446Y-31341
X19449Y-35998
X19646Y-22069
X19679Y-26767
X19685Y-31693
X19685Y-36220
X19921Y-22326
X19921Y-26969
X19921Y-31916
X19927Y-36422
X22244Y-24016
X22244Y-25394
X23425Y-15827
X23819Y-34646
X25591Y-13512
X25630Y-41693
X25984Y-32283
X26147Y-12958
X26378Y-22244
X26378Y-27351
X26378Y-32008
X26575Y-21850
X26575Y-40693
T2
X25075Y-6299
X28075Y-6299
X28618Y-14764
X28618Y-22835
X28618Y-25787
X28618Y-33661
X31618Y-14764
X31618Y-22835
X31618Y-25787
X31618Y-33661
T3
X13717Y-29653
X13717Y-32653
X14717Y-29653
X14717Y-32653
X15230Y-36106
X15230Y-38173
X15717Y-29653
X15717Y-32653
X16214Y-36106
X16214Y-38173
X16717Y-29653
X16717Y-32653
X20789Y-7512
X20789Y-8512
X20789Y-9512
X20789Y-10512
X20789Y-11512
X20789Y-12512
X20789Y-13512
X20789Y-14512
X20789Y-16860
X20789Y-17860
X20789Y-18860
X20789Y-19860
X20789Y-20860
X20789Y-21860
X20789Y-22860
X20789Y-23860
X20789Y-26350
X20789Y-27350
X20789Y-28350
X20789Y-29350
X20789Y-30350
X20789Y-31350
X20789Y-32350
X20789Y-33350
X20789Y-35693
X20789Y-36693
X20789Y-37693
X20789Y-38693
X20789Y-39693
X20789Y-40693
X20789Y-41693
X20789Y-42693
X23789Y-7512
X23789Y-8512
X23789Y-9512
X23789Y-10512
X23789Y-11512
X23789Y-12512
X23789Y-13512
X23789Y-14512
X23789Y-16860
X23789Y-17860
X23789Y-18860
X23789Y-19860
X23789Y-20860
X23789Y-21860
X23789Y-22860
X23789Y-23860
X23789Y-26350
X23789Y-27350
X23789Y-28350
X23789Y-29350
X23789Y-30350
X23789Y-31350
X23789Y-32350
X23789Y-33350
X23789Y-35693
X23789Y-36693
X23789Y-37693
X23789Y-38693
X23789Y-39693
X23789Y-40693
X23789Y-41693
X23789Y-42693
X26692Y-10003
X26692Y-11631
X26692Y-17966
X26692Y-19593
X26692Y-28819
X26692Y-30447
X26692Y-36863
X26692Y-38491
X27212Y-9350
X27212Y-12283
X27212Y-17313
X27212Y-20246
X27212Y-28166
X27212Y-31100
X27212Y-36210
X27212Y-39144
X27964Y-8988
X27964Y-12646
X27964Y-16951
X27964Y-20608
X27964Y-27804
X27964Y-31462
X27964Y-35848
X27964Y-39506
X28799Y-8988
X28799Y-12646
X28799Y-16951
X28799Y-20608
X28799Y-27804
X28799Y-31462
X28799Y-35848
X28799Y-39506
X29552Y-9350
X29552Y-12283
X29552Y-17313
X29552Y-20246
X29552Y-28166
X29552Y-31100
X29552Y-36210
X29552Y-39144
X30072Y-10003
X30072Y-11631
X30072Y-17966
X30072Y-19593
X30072Y-28819
X30072Y-30447
X30072Y-36863
X30072Y-38491
X30258Y-10817
X30258Y-18780
X30258Y-29633
X30258Y-37677
T4
X27953Y-24291
X28953Y-24291
T5
X6496Y-24502
X6496Y-25486
X10780Y-8071
X10780Y-9071
X10780Y-10071
X10780Y-11071
X10780Y-12071
X10780Y-13071
X10780Y-14071
X10780Y-15071
X10780Y-16071
X10780Y-17071
X10780Y-18071
X10780Y-19071
X10780Y-20071
X10780Y-21071
X12205Y-41339
X13189Y-41339
X13780Y-8071
X13780Y-9071
X13780Y-10071
X13780Y-11071
X13780Y-12071
X13780Y-13071
X13780Y-14071
X13780Y-15071
X13780Y-16071
X13780Y-17071
X13780Y-18071
X13780Y-19071
X13780Y-20071
X13780Y-21071
X15748Y-41339
X16732Y-41339
T6
X14140Y-36188
X14140Y-37188
X14140Y-38188
T7
X7283Y-12100
X7283Y-14069
X7283Y-17415
X7283Y-19384
T8
X6299Y-6299
X6299Y-42520
X30709Y-6299
X30709Y-42520
M30
