G04 #@! TF.GenerationSoftware,KiCad,Pcbnew,8.0.7-8.0.7-0~ubuntu22.04.1*
G04 #@! TF.CreationDate,2024-12-26T22:32:45+01:00*
G04 #@! TF.ProjectId,nixie,6e697869-652e-46b6-9963-61645f706362,rev?*
G04 #@! TF.SameCoordinates,Original*
G04 #@! TF.FileFunction,Soldermask,Top*
G04 #@! TF.FilePolarity,Negative*
%FSLAX46Y46*%
G04 Gerber Fmt 4.6, Leading zero omitted, Abs format (unit mm)*
G04 Created by KiCad (PCBNEW 8.0.7-8.0.7-0~ubuntu22.04.1) date 2024-12-26 22:32:45*
%MOMM*%
%LPD*%
G01*
G04 APERTURE LIST*
%ADD10C,1.600000*%
%ADD11O,1.600000X1.600000*%
%ADD12R,1.600000X1.600000*%
%ADD13R,4.000000X4.000000*%
%ADD14C,4.000000*%
%ADD15R,1.905000X2.000000*%
%ADD16O,1.905000X2.000000*%
%ADD17C,6.400000*%
%ADD18C,1.440000*%
%ADD19C,2.600000*%
%ADD20O,3.960000X1.980000*%
%ADD21R,3.960000X1.980000*%
%ADD22R,1.500000X1.050000*%
%ADD23O,1.500000X1.050000*%
G04 APERTURE END LIST*
D10*
G04 #@! TO.C,Rs5*
X36000000Y-55160000D03*
D11*
X36000000Y-45000000D03*
G04 #@! TD*
D12*
G04 #@! TO.C,C8*
X40000000Y-37580000D03*
D10*
X45000000Y-37580000D03*
G04 #@! TD*
D13*
G04 #@! TO.C,C9*
X25500000Y-35580000D03*
D14*
X25500000Y-25580000D03*
G04 #@! TD*
D15*
G04 #@! TO.C,Q2*
X41460000Y-66525000D03*
D16*
X44000000Y-66525000D03*
X46540000Y-66525000D03*
G04 #@! TD*
D17*
G04 #@! TO.C,H3*
X78000000Y-68000000D03*
G04 #@! TD*
D18*
G04 #@! TO.C,RV1*
X56500000Y-22080000D03*
X53960000Y-19540000D03*
X51420000Y-22080000D03*
G04 #@! TD*
D10*
G04 #@! TO.C,R5*
X55000000Y-40740000D03*
D11*
X55000000Y-30580000D03*
G04 #@! TD*
D17*
G04 #@! TO.C,H1*
X16000000Y-16000000D03*
G04 #@! TD*
D19*
G04 #@! TO.C,L1*
X40000000Y-25080000D03*
X45000000Y-25080000D03*
G04 #@! TD*
D10*
G04 #@! TO.C,Rs3*
X27900000Y-55160000D03*
D11*
X27900000Y-45000000D03*
G04 #@! TD*
D10*
G04 #@! TO.C,C6*
X52000000Y-50580000D03*
X52000000Y-53080000D03*
G04 #@! TD*
D17*
G04 #@! TO.C,H2*
X78000000Y-16000000D03*
G04 #@! TD*
D10*
G04 #@! TO.C,C7*
X52000000Y-45330000D03*
X52000000Y-47830000D03*
G04 #@! TD*
D17*
G04 #@! TO.C,H4*
X16000000Y-68000000D03*
G04 #@! TD*
D20*
G04 #@! TO.C,J4*
X75500000Y-35000000D03*
D21*
X75500000Y-40000000D03*
G04 #@! TD*
D10*
G04 #@! TO.C,Rs1*
X19800000Y-55160000D03*
D11*
X19800000Y-45000000D03*
G04 #@! TD*
D12*
G04 #@! TO.C,D2*
X37880000Y-15080000D03*
D11*
X45500000Y-15080000D03*
G04 #@! TD*
D12*
G04 #@! TO.C,D1*
X47810000Y-58390000D03*
D11*
X40190000Y-58390000D03*
G04 #@! TD*
D10*
G04 #@! TO.C,Rs2*
X23850000Y-55160000D03*
D11*
X23850000Y-45000000D03*
G04 #@! TD*
D22*
G04 #@! TO.C,Q1*
X35360000Y-61350000D03*
D23*
X35360000Y-60080000D03*
X35360000Y-58810000D03*
G04 #@! TD*
D12*
G04 #@! TO.C,U5*
X40000000Y-52700000D03*
D11*
X42540000Y-52700000D03*
X45080000Y-52700000D03*
X47620000Y-52700000D03*
X47620000Y-45080000D03*
X45080000Y-45080000D03*
X42540000Y-45080000D03*
X40000000Y-45080000D03*
G04 #@! TD*
D10*
G04 #@! TO.C,Rs4*
X31950000Y-55160000D03*
D11*
X31950000Y-45000000D03*
G04 #@! TD*
D10*
G04 #@! TO.C,R4*
X51500000Y-30580000D03*
D11*
X51500000Y-40740000D03*
G04 #@! TD*
D10*
G04 #@! TO.C,R3*
X52000000Y-55920000D03*
D11*
X52000000Y-66080000D03*
G04 #@! TD*
D20*
G04 #@! TO.C,J3*
X75500000Y-48735000D03*
D21*
X75500000Y-53735000D03*
G04 #@! TD*
M02*
