G04 #@! TF.GenerationSoftware,KiCad,Pcbnew,8.0.7-8.0.7-0~ubuntu22.04.1*
G04 #@! TF.CreationDate,2024-12-26T22:32:45+01:00*
G04 #@! TF.ProjectId,nixie,6e697869-652e-46b6-9963-61645f706362,rev?*
G04 #@! TF.SameCoordinates,Original*
G04 #@! TF.FileFunction,Copper,L2,Bot*
G04 #@! TF.FilePolarity,Positive*
%FSLAX46Y46*%
G04 Gerber Fmt 4.6, Leading zero omitted, Abs format (unit mm)*
G04 Created by KiCad (PCBNEW 8.0.7-8.0.7-0~ubuntu22.04.1) date 2024-12-26 22:32:45*
%MOMM*%
%LPD*%
G01*
G04 APERTURE LIST*
G04 #@! TA.AperFunction,ComponentPad*
%ADD10C,1.600000*%
G04 #@! TD*
G04 #@! TA.AperFunction,ComponentPad*
%ADD11O,1.600000X1.600000*%
G04 #@! TD*
G04 #@! TA.AperFunction,ComponentPad*
%ADD12R,1.600000X1.600000*%
G04 #@! TD*
G04 #@! TA.AperFunction,ComponentPad*
%ADD13R,4.000000X4.000000*%
G04 #@! TD*
G04 #@! TA.AperFunction,ComponentPad*
%ADD14C,4.000000*%
G04 #@! TD*
G04 #@! TA.AperFunction,ComponentPad*
%ADD15R,1.905000X2.000000*%
G04 #@! TD*
G04 #@! TA.AperFunction,ComponentPad*
%ADD16O,1.905000X2.000000*%
G04 #@! TD*
G04 #@! TA.AperFunction,ComponentPad*
%ADD17C,6.400000*%
G04 #@! TD*
G04 #@! TA.AperFunction,ComponentPad*
%ADD18C,1.440000*%
G04 #@! TD*
G04 #@! TA.AperFunction,ComponentPad*
%ADD19C,2.600000*%
G04 #@! TD*
G04 #@! TA.AperFunction,ComponentPad*
%ADD20O,3.960000X1.980000*%
G04 #@! TD*
G04 #@! TA.AperFunction,ComponentPad*
%ADD21R,3.960000X1.980000*%
G04 #@! TD*
G04 #@! TA.AperFunction,ComponentPad*
%ADD22R,1.500000X1.050000*%
G04 #@! TD*
G04 #@! TA.AperFunction,ComponentPad*
%ADD23O,1.500000X1.050000*%
G04 #@! TD*
G04 #@! TA.AperFunction,Conductor*
%ADD24C,1.000000*%
G04 #@! TD*
G04 APERTURE END LIST*
D10*
G04 #@! TO.P,Rs5,1*
G04 #@! TO.N,VDD*
X36000000Y-55160000D03*
D11*
G04 #@! TO.P,Rs5,2*
G04 #@! TO.N,/Power/blob*
X36000000Y-45000000D03*
G04 #@! TD*
D12*
G04 #@! TO.P,C8,1*
G04 #@! TO.N,/Power/blob*
X40000000Y-37580000D03*
D10*
G04 #@! TO.P,C8,2*
G04 #@! TO.N,GND*
X45000000Y-37580000D03*
G04 #@! TD*
D13*
G04 #@! TO.P,C9,1*
G04 #@! TO.N,VDDA*
X25500000Y-35580000D03*
D14*
G04 #@! TO.P,C9,2*
G04 #@! TO.N,GND*
X25500000Y-25580000D03*
G04 #@! TD*
D15*
G04 #@! TO.P,Q2,1,G*
G04 #@! TO.N,Net-(D1-K)*
X41460000Y-66525000D03*
D16*
G04 #@! TO.P,Q2,2,D*
G04 #@! TO.N,Net-(D2-A)*
X44000000Y-66525000D03*
G04 #@! TO.P,Q2,3,S*
G04 #@! TO.N,GND*
X46540000Y-66525000D03*
G04 #@! TD*
D17*
G04 #@! TO.P,H3,1,1*
G04 #@! TO.N,unconnected-(H3-Pad1)*
X78000000Y-68000000D03*
G04 #@! TD*
D18*
G04 #@! TO.P,RV1,1,1*
G04 #@! TO.N,Net-(R5-Pad2)*
X56500000Y-22080000D03*
G04 #@! TO.P,RV1,2,2*
G04 #@! TO.N,GND*
X53960000Y-19540000D03*
G04 #@! TO.P,RV1,3,3*
G04 #@! TO.N,unconnected-(RV1-Pad3)*
X51420000Y-22080000D03*
G04 #@! TD*
D10*
G04 #@! TO.P,R5,1*
G04 #@! TO.N,Net-(U5-Vfb)*
X55000000Y-40740000D03*
D11*
G04 #@! TO.P,R5,2*
G04 #@! TO.N,Net-(R5-Pad2)*
X55000000Y-30580000D03*
G04 #@! TD*
D17*
G04 #@! TO.P,H1,1,1*
G04 #@! TO.N,unconnected-(H1-Pad1)*
X16000000Y-16000000D03*
G04 #@! TD*
D19*
G04 #@! TO.P,L1,1,1*
G04 #@! TO.N,/Power/blob*
X40000000Y-25080000D03*
G04 #@! TO.P,L1,2,2*
G04 #@! TO.N,Net-(D2-A)*
X45000000Y-25080000D03*
G04 #@! TD*
D10*
G04 #@! TO.P,Rs3,1*
G04 #@! TO.N,VDD*
X27900000Y-55160000D03*
D11*
G04 #@! TO.P,Rs3,2*
G04 #@! TO.N,/Power/blob*
X27900000Y-45000000D03*
G04 #@! TD*
D10*
G04 #@! TO.P,C6,1*
G04 #@! TO.N,Net-(U5-TC)*
X52000000Y-50580000D03*
G04 #@! TO.P,C6,2*
G04 #@! TO.N,GND*
X52000000Y-53080000D03*
G04 #@! TD*
D17*
G04 #@! TO.P,H2,1,1*
G04 #@! TO.N,unconnected-(H2-Pad1)*
X78000000Y-16000000D03*
G04 #@! TD*
D10*
G04 #@! TO.P,C7,1*
G04 #@! TO.N,Net-(U5-Vfb)*
X52000000Y-45330000D03*
G04 #@! TO.P,C7,2*
G04 #@! TO.N,GND*
X52000000Y-47830000D03*
G04 #@! TD*
D17*
G04 #@! TO.P,H4,1,1*
G04 #@! TO.N,unconnected-(H4-Pad1)*
X16000000Y-68000000D03*
G04 #@! TD*
D20*
G04 #@! TO.P,J4,2,Pin_2*
G04 #@! TO.N,GND*
X75500000Y-35000000D03*
D21*
G04 #@! TO.P,J4,1,Pin_1*
G04 #@! TO.N,VDD*
X75500000Y-40000000D03*
G04 #@! TD*
D10*
G04 #@! TO.P,Rs1,1*
G04 #@! TO.N,VDD*
X19800000Y-55160000D03*
D11*
G04 #@! TO.P,Rs1,2*
G04 #@! TO.N,/Power/blob*
X19800000Y-45000000D03*
G04 #@! TD*
D12*
G04 #@! TO.P,D2,1,K*
G04 #@! TO.N,VDDA*
X37880000Y-15080000D03*
D11*
G04 #@! TO.P,D2,2,A*
G04 #@! TO.N,Net-(D2-A)*
X45500000Y-15080000D03*
G04 #@! TD*
D12*
G04 #@! TO.P,D1,1,K*
G04 #@! TO.N,Net-(D1-K)*
X47810000Y-58390000D03*
D11*
G04 #@! TO.P,D1,2,A*
G04 #@! TO.N,Net-(D1-A)*
X40190000Y-58390000D03*
G04 #@! TD*
D10*
G04 #@! TO.P,Rs2,1*
G04 #@! TO.N,VDD*
X23850000Y-55160000D03*
D11*
G04 #@! TO.P,Rs2,2*
G04 #@! TO.N,/Power/blob*
X23850000Y-45000000D03*
G04 #@! TD*
D22*
G04 #@! TO.P,Q1,1,E*
G04 #@! TO.N,GND*
X35360000Y-61350000D03*
D23*
G04 #@! TO.P,Q1,2,B*
G04 #@! TO.N,Net-(D1-A)*
X35360000Y-60080000D03*
G04 #@! TO.P,Q1,3,C*
G04 #@! TO.N,Net-(D1-K)*
X35360000Y-58810000D03*
G04 #@! TD*
D12*
G04 #@! TO.P,U5,1,SwC*
G04 #@! TO.N,/Power/blob*
X40000000Y-52700000D03*
D11*
G04 #@! TO.P,U5,2,SwE*
G04 #@! TO.N,Net-(D1-A)*
X42540000Y-52700000D03*
G04 #@! TO.P,U5,3,TC*
G04 #@! TO.N,Net-(U5-TC)*
X45080000Y-52700000D03*
G04 #@! TO.P,U5,4,GND*
G04 #@! TO.N,GND*
X47620000Y-52700000D03*
G04 #@! TO.P,U5,5,Vfb*
G04 #@! TO.N,Net-(U5-Vfb)*
X47620000Y-45080000D03*
G04 #@! TO.P,U5,6,Vin*
G04 #@! TO.N,VDD*
X45080000Y-45080000D03*
G04 #@! TO.P,U5,7,Ipk*
G04 #@! TO.N,/Power/blob*
X42540000Y-45080000D03*
G04 #@! TO.P,U5,8,DC*
X40000000Y-45080000D03*
G04 #@! TD*
D10*
G04 #@! TO.P,Rs4,1*
G04 #@! TO.N,VDD*
X31950000Y-55160000D03*
D11*
G04 #@! TO.P,Rs4,2*
G04 #@! TO.N,/Power/blob*
X31950000Y-45000000D03*
G04 #@! TD*
D10*
G04 #@! TO.P,R4,1*
G04 #@! TO.N,VDDA*
X51500000Y-30580000D03*
D11*
G04 #@! TO.P,R4,2*
G04 #@! TO.N,Net-(U5-Vfb)*
X51500000Y-40740000D03*
G04 #@! TD*
D10*
G04 #@! TO.P,R3,1*
G04 #@! TO.N,Net-(D1-A)*
X52000000Y-55920000D03*
D11*
G04 #@! TO.P,R3,2*
G04 #@! TO.N,GND*
X52000000Y-66080000D03*
G04 #@! TD*
D20*
G04 #@! TO.P,J3,2,Pin_2*
G04 #@! TO.N,GND*
X75500000Y-48735000D03*
D21*
G04 #@! TO.P,J3,1,Pin_1*
G04 #@! TO.N,VDDA*
X75500000Y-53735000D03*
G04 #@! TD*
D24*
G04 #@! TO.N,Net-(D1-K)*
X41460000Y-66525000D02*
X41460000Y-64740000D01*
X41460000Y-64740000D02*
X47810000Y-58390000D01*
X37110000Y-58810000D02*
X35360000Y-58810000D01*
X41460000Y-63160000D02*
X37110000Y-58810000D01*
X41460000Y-66525000D02*
X41460000Y-63160000D01*
G04 #@! TO.N,Net-(D1-A)*
X52000000Y-55920000D02*
X42660000Y-55920000D01*
X42540000Y-52700000D02*
X42540000Y-56040000D01*
X42540000Y-56040000D02*
X40190000Y-58390000D01*
X42660000Y-55920000D02*
X42540000Y-56040000D01*
G04 #@! TO.N,Net-(U5-TC)*
X47200000Y-50580000D02*
X45080000Y-52700000D01*
X52000000Y-50580000D02*
X47200000Y-50580000D01*
G04 #@! TO.N,Net-(U5-Vfb)*
X51750000Y-45080000D02*
X52000000Y-45330000D01*
G04 #@! TD*
G04 #@! TA.AperFunction,Conductor*
G04 #@! TO.N,GND*
G36*
X51178287Y-51599454D02*
G01*
X51225839Y-51625545D01*
X51226987Y-51626349D01*
X51294164Y-51696536D01*
X51329368Y-51787089D01*
X51327240Y-51884220D01*
X51288102Y-51973144D01*
X51275893Y-51985351D01*
X51274526Y-52000971D01*
X51953555Y-52680000D01*
X51947339Y-52680000D01*
X51845606Y-52707259D01*
X51754394Y-52759920D01*
X51679920Y-52834394D01*
X51627259Y-52925606D01*
X51600000Y-53027339D01*
X51600000Y-53033555D01*
X50920972Y-52354527D01*
X50869868Y-52427513D01*
X50773732Y-52633676D01*
X50714859Y-52853396D01*
X50714859Y-52853397D01*
X50695034Y-53080000D01*
X50714859Y-53306602D01*
X50714859Y-53306603D01*
X50773732Y-53526323D01*
X50869866Y-53732483D01*
X50869868Y-53732485D01*
X50920973Y-53805471D01*
X51600000Y-53126444D01*
X51600000Y-53132661D01*
X51627259Y-53234394D01*
X51679920Y-53325606D01*
X51754394Y-53400080D01*
X51845606Y-53452741D01*
X51947339Y-53480000D01*
X51953553Y-53480000D01*
X51274527Y-54159025D01*
X51274527Y-54159027D01*
X51347510Y-54210129D01*
X51347514Y-54210132D01*
X51484593Y-54274053D01*
X51562943Y-54331502D01*
X51613344Y-54414561D01*
X51628124Y-54510585D01*
X51605032Y-54604956D01*
X51547583Y-54683306D01*
X51484594Y-54725394D01*
X51347268Y-54789430D01*
X51347258Y-54789436D01*
X51225819Y-54874469D01*
X51136892Y-54913598D01*
X51082999Y-54919500D01*
X43789500Y-54919500D01*
X43694212Y-54900546D01*
X43613430Y-54846570D01*
X43559454Y-54765788D01*
X43540500Y-54670500D01*
X43540500Y-53617000D01*
X43559454Y-53521712D01*
X43585526Y-53474187D01*
X43606031Y-53444903D01*
X43676207Y-53377722D01*
X43766755Y-53342507D01*
X43863887Y-53344624D01*
X43952815Y-53383751D01*
X44013968Y-53444903D01*
X44079724Y-53538812D01*
X44079953Y-53539139D01*
X44240861Y-53700047D01*
X44240864Y-53700049D01*
X44240865Y-53700050D01*
X44427258Y-53830563D01*
X44427262Y-53830565D01*
X44427266Y-53830568D01*
X44427270Y-53830569D01*
X44427272Y-53830571D01*
X44485116Y-53857544D01*
X44633504Y-53926739D01*
X44853308Y-53985635D01*
X44872984Y-53987356D01*
X45079994Y-54005468D01*
X45080000Y-54005468D01*
X45080006Y-54005468D01*
X45259668Y-53989749D01*
X45306692Y-53985635D01*
X45526496Y-53926739D01*
X45732734Y-53830568D01*
X45919139Y-53700047D01*
X46080047Y-53539139D01*
X46146337Y-53444465D01*
X46216515Y-53377284D01*
X46307064Y-53342070D01*
X46404196Y-53344189D01*
X46493124Y-53383317D01*
X46554274Y-53444466D01*
X46620337Y-53538814D01*
X46781187Y-53699664D01*
X46967516Y-53830133D01*
X47173676Y-53926267D01*
X47369999Y-53978871D01*
X47370000Y-53978871D01*
X47370000Y-53015686D01*
X47374394Y-53020080D01*
X47465606Y-53072741D01*
X47567339Y-53100000D01*
X47672661Y-53100000D01*
X47774394Y-53072741D01*
X47865606Y-53020080D01*
X47870000Y-53015686D01*
X47870000Y-53978871D01*
X48066323Y-53926267D01*
X48272483Y-53830133D01*
X48458812Y-53699664D01*
X48619664Y-53538812D01*
X48750133Y-53352483D01*
X48846267Y-53146323D01*
X48898872Y-52950000D01*
X47935686Y-52950000D01*
X47940080Y-52945606D01*
X47992741Y-52854394D01*
X48020000Y-52752661D01*
X48020000Y-52647339D01*
X47992741Y-52545606D01*
X47940080Y-52454394D01*
X47935686Y-52450000D01*
X48898872Y-52450000D01*
X48898871Y-52449999D01*
X48846267Y-52253676D01*
X48750134Y-52047519D01*
X48697480Y-51972321D01*
X48658351Y-51883394D01*
X48656232Y-51786262D01*
X48691444Y-51695713D01*
X48758628Y-51625531D01*
X48847555Y-51586402D01*
X48901449Y-51580500D01*
X51082999Y-51580500D01*
X51178287Y-51599454D01*
G37*
G04 #@! TD.AperFunction*
G04 #@! TA.AperFunction,Conductor*
G36*
X75849027Y-12519454D02*
G01*
X75929809Y-12573430D01*
X75983785Y-12654212D01*
X76002739Y-12749500D01*
X75983785Y-12844788D01*
X75929809Y-12925570D01*
X75889353Y-12958329D01*
X75821918Y-13002121D01*
X75520490Y-13246213D01*
X75246213Y-13520490D01*
X75002124Y-13821914D01*
X74790875Y-14147210D01*
X74790872Y-14147215D01*
X74614786Y-14492804D01*
X74475786Y-14854913D01*
X74375397Y-15229571D01*
X74363182Y-15306694D01*
X74314722Y-15612662D01*
X74294422Y-16000000D01*
X74314722Y-16387338D01*
X74314722Y-16387343D01*
X74314723Y-16387345D01*
X74375397Y-16770428D01*
X74475786Y-17145086D01*
X74614786Y-17507195D01*
X74790872Y-17852784D01*
X74790875Y-17852789D01*
X75002124Y-18178085D01*
X75246213Y-18479509D01*
X75246219Y-18479516D01*
X75520484Y-18753781D01*
X75520489Y-18753785D01*
X75520490Y-18753786D01*
X75821914Y-18997875D01*
X75821916Y-18997876D01*
X76147211Y-19209125D01*
X76492806Y-19385214D01*
X76854913Y-19524214D01*
X77229567Y-19624602D01*
X77612662Y-19685278D01*
X78000000Y-19705578D01*
X78387338Y-19685278D01*
X78770433Y-19624602D01*
X79145087Y-19524214D01*
X79507194Y-19385214D01*
X79852789Y-19209125D01*
X80178084Y-18997876D01*
X80479516Y-18753781D01*
X80753781Y-18479516D01*
X80997876Y-18178084D01*
X81015482Y-18150973D01*
X81041671Y-18110647D01*
X81109464Y-18041054D01*
X81198729Y-18002702D01*
X81295876Y-18001430D01*
X81386114Y-18037432D01*
X81455707Y-18105225D01*
X81494059Y-18194490D01*
X81499500Y-18246261D01*
X81499500Y-65753738D01*
X81480546Y-65849026D01*
X81426570Y-65929808D01*
X81345788Y-65983784D01*
X81250500Y-66002738D01*
X81155212Y-65983784D01*
X81074430Y-65929808D01*
X81041671Y-65889354D01*
X80997872Y-65821910D01*
X80753786Y-65520490D01*
X80753785Y-65520489D01*
X80753781Y-65520484D01*
X80479516Y-65246219D01*
X80465925Y-65235213D01*
X80178085Y-65002124D01*
X79852789Y-64790875D01*
X79852784Y-64790872D01*
X79507195Y-64614786D01*
X79326140Y-64545286D01*
X79145087Y-64475786D01*
X78770433Y-64375398D01*
X78770429Y-64375397D01*
X78770428Y-64375397D01*
X78387344Y-64314723D01*
X78387345Y-64314723D01*
X78387343Y-64314722D01*
X78387338Y-64314722D01*
X78000000Y-64294422D01*
X77612662Y-64314722D01*
X77612656Y-64314722D01*
X77612654Y-64314723D01*
X77229571Y-64375397D01*
X76854913Y-64475786D01*
X76492804Y-64614786D01*
X76147215Y-64790872D01*
X76147210Y-64790875D01*
X75821914Y-65002124D01*
X75520490Y-65246213D01*
X75246213Y-65520490D01*
X75002124Y-65821914D01*
X74790875Y-66147210D01*
X74790872Y-66147215D01*
X74614786Y-66492804D01*
X74475786Y-66854913D01*
X74375397Y-67229571D01*
X74321024Y-67572872D01*
X74314722Y-67612662D01*
X74294422Y-68000000D01*
X74314722Y-68387338D01*
X74314722Y-68387343D01*
X74314723Y-68387345D01*
X74375397Y-68770428D01*
X74475786Y-69145086D01*
X74614786Y-69507195D01*
X74790872Y-69852784D01*
X74790875Y-69852789D01*
X75002124Y-70178085D01*
X75163487Y-70377351D01*
X75246219Y-70479516D01*
X75520484Y-70753781D01*
X75520489Y-70753785D01*
X75520490Y-70753786D01*
X75821918Y-70997878D01*
X75889353Y-71041671D01*
X75958946Y-71109464D01*
X75997298Y-71198729D01*
X75998570Y-71295876D01*
X75962568Y-71386114D01*
X75894775Y-71455707D01*
X75805510Y-71494059D01*
X75753739Y-71499500D01*
X18246261Y-71499500D01*
X18150973Y-71480546D01*
X18070191Y-71426570D01*
X18016215Y-71345788D01*
X17997261Y-71250500D01*
X18016215Y-71155212D01*
X18070191Y-71074430D01*
X18110647Y-71041671D01*
X18178081Y-70997878D01*
X18178081Y-70997877D01*
X18178084Y-70997876D01*
X18479516Y-70753781D01*
X18753781Y-70479516D01*
X18997876Y-70178084D01*
X19209125Y-69852789D01*
X19385214Y-69507194D01*
X19524214Y-69145087D01*
X19624602Y-68770433D01*
X19685278Y-68387338D01*
X19705578Y-68000000D01*
X19685278Y-67612662D01*
X19624602Y-67229567D01*
X19524214Y-66854913D01*
X19385214Y-66492806D01*
X19209125Y-66147211D01*
X19041671Y-65889354D01*
X18997875Y-65821914D01*
X18753786Y-65520490D01*
X18753785Y-65520489D01*
X18753781Y-65520484D01*
X18479516Y-65246219D01*
X18465925Y-65235213D01*
X18178085Y-65002124D01*
X17852789Y-64790875D01*
X17852784Y-64790872D01*
X17507195Y-64614786D01*
X17326140Y-64545286D01*
X17145087Y-64475786D01*
X16770433Y-64375398D01*
X16770429Y-64375397D01*
X16770428Y-64375397D01*
X16387344Y-64314723D01*
X16387345Y-64314723D01*
X16387343Y-64314722D01*
X16387338Y-64314722D01*
X16000000Y-64294422D01*
X15612662Y-64314722D01*
X15612656Y-64314722D01*
X15612654Y-64314723D01*
X15229571Y-64375397D01*
X14854913Y-64475786D01*
X14492804Y-64614786D01*
X14147215Y-64790872D01*
X14147210Y-64790875D01*
X13821914Y-65002124D01*
X13520490Y-65246213D01*
X13246213Y-65520490D01*
X13002127Y-65821910D01*
X12958329Y-65889354D01*
X12890535Y-65958946D01*
X12801269Y-65997297D01*
X12704123Y-65998568D01*
X12613884Y-65962567D01*
X12544292Y-65894773D01*
X12505941Y-65805507D01*
X12500500Y-65753738D01*
X12500500Y-58708998D01*
X34109500Y-58708998D01*
X34109500Y-58911001D01*
X34148909Y-59109128D01*
X34226211Y-59295751D01*
X34226216Y-59295759D01*
X34233505Y-59306669D01*
X34270682Y-59396429D01*
X34270679Y-59493584D01*
X34233505Y-59583331D01*
X34226216Y-59594240D01*
X34226211Y-59594248D01*
X34148909Y-59780871D01*
X34148909Y-59780873D01*
X34109500Y-59978997D01*
X34109500Y-60181003D01*
X34124796Y-60257903D01*
X34148910Y-60379130D01*
X34160746Y-60407706D01*
X34179699Y-60502994D01*
X34164000Y-60590006D01*
X34116403Y-60717618D01*
X34116401Y-60717628D01*
X34110000Y-60777167D01*
X34110000Y-61099999D01*
X34110001Y-61100000D01*
X34981822Y-61100000D01*
X35030391Y-61104782D01*
X35033997Y-61105500D01*
X35033998Y-61105500D01*
X35040449Y-61106783D01*
X35063386Y-61116283D01*
X35059925Y-61119745D01*
X35010556Y-61205255D01*
X34985000Y-61300630D01*
X34985000Y-61399370D01*
X35010556Y-61494745D01*
X35059925Y-61580255D01*
X35064801Y-61585131D01*
X35040462Y-61595214D01*
X34991878Y-61600000D01*
X34110001Y-61600000D01*
X34110000Y-61600001D01*
X34110000Y-61922832D01*
X34116401Y-61982371D01*
X34116403Y-61982378D01*
X34166646Y-62117087D01*
X34252810Y-62232187D01*
X34252812Y-62232189D01*
X34367912Y-62318353D01*
X34502621Y-62368596D01*
X34502628Y-62368598D01*
X34562167Y-62374999D01*
X34562175Y-62375000D01*
X35109999Y-62375000D01*
X35110000Y-62374999D01*
X35110000Y-61630330D01*
X35129745Y-61650075D01*
X35215255Y-61699444D01*
X35310630Y-61725000D01*
X35409370Y-61725000D01*
X35504745Y-61699444D01*
X35590255Y-61650075D01*
X35610000Y-61630330D01*
X35610000Y-62374999D01*
X35610001Y-62375000D01*
X36157825Y-62375000D01*
X36157832Y-62374999D01*
X36217371Y-62368598D01*
X36217378Y-62368596D01*
X36352087Y-62318353D01*
X36467187Y-62232189D01*
X36467189Y-62232187D01*
X36553353Y-62117087D01*
X36603596Y-61982378D01*
X36603598Y-61982371D01*
X36609999Y-61922832D01*
X36610000Y-61922825D01*
X36610000Y-61600001D01*
X36609999Y-61600000D01*
X35728122Y-61600000D01*
X35654895Y-61585434D01*
X35660075Y-61580255D01*
X35709444Y-61494745D01*
X35735000Y-61399370D01*
X35735000Y-61300630D01*
X35709444Y-61205255D01*
X35660075Y-61119745D01*
X35654662Y-61114332D01*
X35679551Y-61106783D01*
X35686002Y-61105500D01*
X35686003Y-61105500D01*
X35689608Y-61104782D01*
X35738178Y-61100000D01*
X36609999Y-61100000D01*
X36610000Y-61099999D01*
X36610000Y-60777175D01*
X36609999Y-60777167D01*
X36603598Y-60717628D01*
X36603595Y-60717617D01*
X36556000Y-60590008D01*
X36540459Y-60494104D01*
X36559256Y-60407699D01*
X36559601Y-60406865D01*
X36571091Y-60379127D01*
X36595204Y-60257899D01*
X36632382Y-60168143D01*
X36701081Y-60099444D01*
X36790840Y-60062264D01*
X36887995Y-60062263D01*
X36977755Y-60099442D01*
X37015489Y-60130409D01*
X40386570Y-63501490D01*
X40440546Y-63582272D01*
X40459500Y-63677560D01*
X40459500Y-64835838D01*
X40440546Y-64931126D01*
X40386570Y-65011908D01*
X40305788Y-65065884D01*
X40297519Y-65069137D01*
X40265172Y-65081202D01*
X40149955Y-65167453D01*
X40149953Y-65167455D01*
X40063704Y-65282669D01*
X40013408Y-65417518D01*
X40007000Y-65477123D01*
X40007000Y-67572865D01*
X40007001Y-67572869D01*
X40013408Y-67632480D01*
X40013409Y-67632483D01*
X40063704Y-67767331D01*
X40149954Y-67882546D01*
X40265169Y-67968796D01*
X40400017Y-68019091D01*
X40459627Y-68025500D01*
X42460372Y-68025499D01*
X42519983Y-68019091D01*
X42654831Y-67968796D01*
X42770046Y-67882546D01*
X42820604Y-67815008D01*
X42892879Y-67750087D01*
X42984500Y-67717765D01*
X43081515Y-67722964D01*
X43166297Y-67762786D01*
X43237868Y-67814786D01*
X43238462Y-67815217D01*
X43442242Y-67919048D01*
X43659755Y-67989722D01*
X43724647Y-68000000D01*
X43885636Y-68025499D01*
X43885643Y-68025499D01*
X43885646Y-68025500D01*
X43885649Y-68025500D01*
X44114351Y-68025500D01*
X44114354Y-68025500D01*
X44114357Y-68025499D01*
X44114363Y-68025499D01*
X44221072Y-68008597D01*
X44340245Y-67989722D01*
X44557758Y-67919048D01*
X44761538Y-67815217D01*
X44946566Y-67680786D01*
X45094286Y-67533065D01*
X45175064Y-67479091D01*
X45270352Y-67460137D01*
X45365640Y-67479091D01*
X45446422Y-67533067D01*
X45446423Y-67533067D01*
X45593763Y-67680407D01*
X45778720Y-67814786D01*
X45778719Y-67814786D01*
X45982436Y-67918584D01*
X45982441Y-67918586D01*
X46199874Y-67989234D01*
X46290000Y-68003509D01*
X46290000Y-67015747D01*
X46327708Y-67037518D01*
X46467591Y-67075000D01*
X46612409Y-67075000D01*
X46752292Y-67037518D01*
X46790000Y-67015747D01*
X46790000Y-68003508D01*
X46880125Y-67989234D01*
X47097558Y-67918586D01*
X47097563Y-67918584D01*
X47301280Y-67814786D01*
X47486236Y-67680407D01*
X47647907Y-67518736D01*
X47782286Y-67333780D01*
X47886084Y-67130063D01*
X47886086Y-67130058D01*
X47956734Y-66912624D01*
X47978533Y-66775000D01*
X47030748Y-66775000D01*
X47052518Y-66737292D01*
X47090000Y-66597409D01*
X47090000Y-66452591D01*
X47052518Y-66312708D01*
X47030748Y-66275000D01*
X47978532Y-66275000D01*
X47956734Y-66137375D01*
X47886086Y-65919941D01*
X47886084Y-65919936D01*
X47840259Y-65829999D01*
X50721128Y-65829999D01*
X50721128Y-65830000D01*
X51684314Y-65830000D01*
X51679920Y-65834394D01*
X51627259Y-65925606D01*
X51600000Y-66027339D01*
X51600000Y-66132661D01*
X51627259Y-66234394D01*
X51679920Y-66325606D01*
X51684314Y-66330000D01*
X50721128Y-66330000D01*
X50773732Y-66526323D01*
X50869866Y-66732483D01*
X51000335Y-66918812D01*
X51161187Y-67079664D01*
X51347516Y-67210133D01*
X51553676Y-67306267D01*
X51749999Y-67358871D01*
X51750000Y-67358871D01*
X51750000Y-66395686D01*
X51754394Y-66400080D01*
X51845606Y-66452741D01*
X51947339Y-66480000D01*
X52052661Y-66480000D01*
X52154394Y-66452741D01*
X52245606Y-66400080D01*
X52250000Y-66395686D01*
X52250000Y-67358871D01*
X52446323Y-67306267D01*
X52652483Y-67210133D01*
X52838812Y-67079664D01*
X52999664Y-66918812D01*
X53130133Y-66732483D01*
X53226267Y-66526323D01*
X53278872Y-66330000D01*
X52315686Y-66330000D01*
X52320080Y-66325606D01*
X52372741Y-66234394D01*
X52400000Y-66132661D01*
X52400000Y-66027339D01*
X52372741Y-65925606D01*
X52320080Y-65834394D01*
X52315686Y-65830000D01*
X53278872Y-65830000D01*
X53278871Y-65829999D01*
X53226267Y-65633676D01*
X53130133Y-65427516D01*
X52999664Y-65241187D01*
X52838812Y-65080335D01*
X52652483Y-64949866D01*
X52446318Y-64853730D01*
X52250000Y-64801126D01*
X52250000Y-65764314D01*
X52245606Y-65759920D01*
X52154394Y-65707259D01*
X52052661Y-65680000D01*
X51947339Y-65680000D01*
X51845606Y-65707259D01*
X51754394Y-65759920D01*
X51750000Y-65764314D01*
X51750000Y-64801127D01*
X51749999Y-64801126D01*
X51553681Y-64853730D01*
X51347516Y-64949866D01*
X51161187Y-65080335D01*
X51000335Y-65241187D01*
X50869866Y-65427516D01*
X50773732Y-65633676D01*
X50721128Y-65829999D01*
X47840259Y-65829999D01*
X47782286Y-65716219D01*
X47647907Y-65531263D01*
X47486236Y-65369592D01*
X47301279Y-65235213D01*
X47301280Y-65235213D01*
X47097563Y-65131415D01*
X47097558Y-65131413D01*
X46880139Y-65060769D01*
X46880127Y-65060766D01*
X46790000Y-65046490D01*
X46790000Y-66034252D01*
X46752292Y-66012482D01*
X46612409Y-65975000D01*
X46467591Y-65975000D01*
X46327708Y-66012482D01*
X46290000Y-66034252D01*
X46290000Y-65046490D01*
X46289999Y-65046490D01*
X46199872Y-65060766D01*
X46199860Y-65060769D01*
X45982441Y-65131413D01*
X45982436Y-65131415D01*
X45778719Y-65235213D01*
X45593761Y-65369594D01*
X45593757Y-65369597D01*
X45446422Y-65516932D01*
X45365640Y-65570908D01*
X45270352Y-65589862D01*
X45175064Y-65570908D01*
X45094286Y-65516934D01*
X44946566Y-65369214D01*
X44848653Y-65298076D01*
X44761541Y-65234785D01*
X44761540Y-65234784D01*
X44761538Y-65234783D01*
X44557758Y-65130952D01*
X44557751Y-65130949D01*
X44340242Y-65060277D01*
X44114363Y-65024500D01*
X44114354Y-65024500D01*
X43885646Y-65024500D01*
X43885636Y-65024500D01*
X43659757Y-65060277D01*
X43442248Y-65130949D01*
X43442241Y-65130952D01*
X43238459Y-65234784D01*
X43166295Y-65287215D01*
X43078064Y-65327889D01*
X42980984Y-65331703D01*
X42889834Y-65298076D01*
X42820603Y-65234990D01*
X42820448Y-65234783D01*
X42770046Y-65167454D01*
X42770045Y-65167453D01*
X42761246Y-65155699D01*
X42719315Y-65068058D01*
X42714114Y-64971043D01*
X42746436Y-64879422D01*
X42784506Y-64830412D01*
X47851490Y-59763429D01*
X47932272Y-59709453D01*
X48027560Y-59690499D01*
X48657866Y-59690499D01*
X48657872Y-59690499D01*
X48717483Y-59684091D01*
X48852331Y-59633796D01*
X48967546Y-59547546D01*
X49053796Y-59432331D01*
X49104091Y-59297483D01*
X49110500Y-59237873D01*
X49110499Y-57542128D01*
X49104091Y-57482517D01*
X49053796Y-57347669D01*
X49032126Y-57318721D01*
X48990195Y-57231080D01*
X48984994Y-57134064D01*
X49017316Y-57042443D01*
X49082239Y-56970166D01*
X49169880Y-56928235D01*
X49231460Y-56920500D01*
X51082999Y-56920500D01*
X51178287Y-56939454D01*
X51225819Y-56965531D01*
X51347258Y-57050563D01*
X51347262Y-57050565D01*
X51347266Y-57050568D01*
X51347270Y-57050569D01*
X51347272Y-57050571D01*
X51442604Y-57095025D01*
X51553504Y-57146739D01*
X51773308Y-57205635D01*
X51792984Y-57207356D01*
X51999994Y-57225468D01*
X52000000Y-57225468D01*
X52000006Y-57225468D01*
X52179668Y-57209749D01*
X52226692Y-57205635D01*
X52446496Y-57146739D01*
X52652734Y-57050568D01*
X52839139Y-56920047D01*
X53000047Y-56759139D01*
X53130568Y-56572734D01*
X53226739Y-56366496D01*
X53285635Y-56146692D01*
X53305468Y-55920000D01*
X53305468Y-55919994D01*
X53285636Y-55693320D01*
X53285635Y-55693308D01*
X53226739Y-55473504D01*
X53130568Y-55267266D01*
X53130565Y-55267262D01*
X53130563Y-55267258D01*
X53000050Y-55080865D01*
X53000049Y-55080864D01*
X53000047Y-55080861D01*
X52839139Y-54919953D01*
X52839135Y-54919950D01*
X52839134Y-54919949D01*
X52652741Y-54789436D01*
X52652727Y-54789428D01*
X52515406Y-54725394D01*
X52437056Y-54667946D01*
X52386654Y-54584887D01*
X52371875Y-54488862D01*
X52394968Y-54394492D01*
X52452416Y-54316142D01*
X52515407Y-54274053D01*
X52652482Y-54210134D01*
X52652488Y-54210130D01*
X52725471Y-54159027D01*
X52725471Y-54159026D01*
X52046445Y-53480000D01*
X52052661Y-53480000D01*
X52154394Y-53452741D01*
X52245606Y-53400080D01*
X52320080Y-53325606D01*
X52372741Y-53234394D01*
X52400000Y-53132661D01*
X52400000Y-53126445D01*
X53079026Y-53805471D01*
X53079027Y-53805471D01*
X53130130Y-53732488D01*
X53130132Y-53732486D01*
X53226267Y-53526323D01*
X53285140Y-53306603D01*
X53285140Y-53306602D01*
X53304965Y-53080000D01*
X53285140Y-52853397D01*
X53285140Y-52853396D01*
X53243267Y-52697123D01*
X73019500Y-52697123D01*
X73019500Y-54772865D01*
X73019500Y-54772868D01*
X73019501Y-54772872D01*
X73021281Y-54789428D01*
X73025908Y-54832480D01*
X73025909Y-54832484D01*
X73076203Y-54967329D01*
X73076204Y-54967331D01*
X73162454Y-55082546D01*
X73277669Y-55168796D01*
X73412517Y-55219091D01*
X73472127Y-55225500D01*
X77527872Y-55225499D01*
X77587483Y-55219091D01*
X77722331Y-55168796D01*
X77837546Y-55082546D01*
X77923796Y-54967331D01*
X77974091Y-54832483D01*
X77980500Y-54772873D01*
X77980499Y-52697128D01*
X77974091Y-52637517D01*
X77923796Y-52502669D01*
X77837546Y-52387454D01*
X77722331Y-52301204D01*
X77594441Y-52253504D01*
X77587481Y-52250908D01*
X77527873Y-52244500D01*
X73472134Y-52244500D01*
X73472130Y-52244500D01*
X73472128Y-52244501D01*
X73459314Y-52245878D01*
X73412519Y-52250908D01*
X73412515Y-52250909D01*
X73277670Y-52301203D01*
X73162455Y-52387453D01*
X73162453Y-52387455D01*
X73076204Y-52502669D01*
X73025908Y-52637518D01*
X73019500Y-52697123D01*
X53243267Y-52697123D01*
X53226267Y-52633676D01*
X53130132Y-52427514D01*
X53130129Y-52427510D01*
X53079027Y-52354527D01*
X53079025Y-52354527D01*
X52400000Y-53033552D01*
X52400000Y-53027339D01*
X52372741Y-52925606D01*
X52320080Y-52834394D01*
X52245606Y-52759920D01*
X52154394Y-52707259D01*
X52052661Y-52680000D01*
X52046445Y-52680000D01*
X52725472Y-52000973D01*
X52723894Y-51982947D01*
X52705846Y-51964093D01*
X52670634Y-51873543D01*
X52672753Y-51776411D01*
X52711882Y-51687484D01*
X52773032Y-51626335D01*
X52839139Y-51580047D01*
X53000047Y-51419139D01*
X53130568Y-51232734D01*
X53226739Y-51026496D01*
X53285635Y-50806692D01*
X53305468Y-50580000D01*
X53305468Y-50579994D01*
X53285636Y-50353320D01*
X53285635Y-50353308D01*
X53226739Y-50133504D01*
X53130568Y-49927266D01*
X53130565Y-49927262D01*
X53130563Y-49927258D01*
X53000050Y-49740865D01*
X53000049Y-49740864D01*
X53000047Y-49740861D01*
X52839139Y-49579953D01*
X52839135Y-49579950D01*
X52839134Y-49579949D01*
X52652741Y-49449436D01*
X52652735Y-49449432D01*
X52611907Y-49430394D01*
X52533558Y-49372945D01*
X52483157Y-49289885D01*
X52468378Y-49193861D01*
X52491471Y-49099490D01*
X52548920Y-49021141D01*
X52611911Y-48979053D01*
X52652478Y-48960136D01*
X52652488Y-48960130D01*
X52725471Y-48909027D01*
X52725471Y-48909026D01*
X52046445Y-48230000D01*
X52052661Y-48230000D01*
X52154394Y-48202741D01*
X52245606Y-48150080D01*
X52320080Y-48075606D01*
X52372741Y-47984394D01*
X52400000Y-47882661D01*
X52400000Y-47876445D01*
X53079026Y-48555471D01*
X53079027Y-48555471D01*
X53128372Y-48484999D01*
X73041022Y-48484999D01*
X73041024Y-48485000D01*
X74889175Y-48485000D01*
X74865364Y-48542485D01*
X74840000Y-48669996D01*
X74840000Y-48800004D01*
X74865364Y-48927515D01*
X74889175Y-48985000D01*
X73041023Y-48985000D01*
X73056686Y-49083898D01*
X73056690Y-49083912D01*
X73129161Y-49306956D01*
X73235640Y-49515934D01*
X73373489Y-49705666D01*
X73539333Y-49871510D01*
X73729065Y-50009359D01*
X73938043Y-50115838D01*
X74161093Y-50188311D01*
X74392724Y-50224999D01*
X74392737Y-50225000D01*
X75249999Y-50225000D01*
X75250000Y-50224999D01*
X75250000Y-49345824D01*
X75307485Y-49369636D01*
X75434996Y-49395000D01*
X75565004Y-49395000D01*
X75692515Y-49369636D01*
X75750000Y-49345824D01*
X75750000Y-50224999D01*
X75750001Y-50225000D01*
X76607263Y-50225000D01*
X76607275Y-50224999D01*
X76838906Y-50188311D01*
X77061956Y-50115838D01*
X77270934Y-50009359D01*
X77460666Y-49871510D01*
X77626510Y-49705666D01*
X77764359Y-49515934D01*
X77870838Y-49306956D01*
X77943309Y-49083912D01*
X77943313Y-49083898D01*
X77958977Y-48985000D01*
X76110825Y-48985000D01*
X76134636Y-48927515D01*
X76160000Y-48800004D01*
X76160000Y-48669996D01*
X76134636Y-48542485D01*
X76110825Y-48485000D01*
X77958976Y-48485000D01*
X77958977Y-48484999D01*
X77943313Y-48386101D01*
X77943309Y-48386087D01*
X77870838Y-48163043D01*
X77764359Y-47954065D01*
X77626510Y-47764333D01*
X77460666Y-47598489D01*
X77270934Y-47460640D01*
X77061956Y-47354161D01*
X76838906Y-47281688D01*
X76607275Y-47245000D01*
X75750001Y-47245000D01*
X75750000Y-47245001D01*
X75750000Y-48124175D01*
X75692515Y-48100364D01*
X75565004Y-48075000D01*
X75434996Y-48075000D01*
X75307485Y-48100364D01*
X75250000Y-48124175D01*
X75250000Y-47245001D01*
X75249999Y-47245000D01*
X74392724Y-47245000D01*
X74161093Y-47281688D01*
X73938043Y-47354161D01*
X73729065Y-47460640D01*
X73539333Y-47598489D01*
X73373489Y-47764333D01*
X73235640Y-47954065D01*
X73129161Y-48163043D01*
X73056690Y-48386087D01*
X73056686Y-48386101D01*
X73041022Y-48484999D01*
X53128372Y-48484999D01*
X53130130Y-48482488D01*
X53130132Y-48482486D01*
X53226267Y-48276323D01*
X53285140Y-48056603D01*
X53285140Y-48056602D01*
X53304965Y-47830000D01*
X53285140Y-47603397D01*
X53285140Y-47603396D01*
X53226267Y-47383676D01*
X53130132Y-47177514D01*
X53130129Y-47177510D01*
X53079027Y-47104527D01*
X53079025Y-47104527D01*
X52400000Y-47783552D01*
X52400000Y-47777339D01*
X52372741Y-47675606D01*
X52320080Y-47584394D01*
X52245606Y-47509920D01*
X52154394Y-47457259D01*
X52052661Y-47430000D01*
X52046445Y-47430000D01*
X52725472Y-46750973D01*
X52723894Y-46732947D01*
X52705846Y-46714093D01*
X52670634Y-46623543D01*
X52672753Y-46526411D01*
X52711882Y-46437484D01*
X52773032Y-46376335D01*
X52788312Y-46365636D01*
X52839139Y-46330047D01*
X53000047Y-46169139D01*
X53130568Y-45982734D01*
X53226739Y-45776496D01*
X53285635Y-45556692D01*
X53295276Y-45446496D01*
X53305468Y-45330005D01*
X53305468Y-45329994D01*
X53285636Y-45103320D01*
X53285635Y-45103308D01*
X53226739Y-44883504D01*
X53130568Y-44677266D01*
X53130565Y-44677262D01*
X53130563Y-44677258D01*
X53000050Y-44490865D01*
X53000049Y-44490864D01*
X53000047Y-44490861D01*
X52839139Y-44329953D01*
X52839135Y-44329950D01*
X52839134Y-44329949D01*
X52652741Y-44199436D01*
X52652727Y-44199428D01*
X52446499Y-44103262D01*
X52446496Y-44103261D01*
X52226694Y-44044365D01*
X52226679Y-44044363D01*
X52000006Y-44024532D01*
X51999994Y-44024532D01*
X51773314Y-44044363D01*
X51773308Y-44044365D01*
X51623310Y-44084555D01*
X51607445Y-44088254D01*
X51458167Y-44117947D01*
X51276087Y-44193368D01*
X51276085Y-44193369D01*
X51112222Y-44302858D01*
X50972858Y-44442222D01*
X50863369Y-44606085D01*
X50863368Y-44606087D01*
X50787947Y-44788167D01*
X50758254Y-44937445D01*
X50754555Y-44953310D01*
X50714365Y-45103308D01*
X50714363Y-45103314D01*
X50694532Y-45329994D01*
X50694532Y-45330005D01*
X50714363Y-45556679D01*
X50714365Y-45556694D01*
X50773261Y-45776496D01*
X50773262Y-45776499D01*
X50869428Y-45982727D01*
X50869436Y-45982741D01*
X50999949Y-46169134D01*
X50999953Y-46169139D01*
X51160861Y-46330047D01*
X51160864Y-46330049D01*
X51160865Y-46330050D01*
X51226967Y-46376335D01*
X51294151Y-46446516D01*
X51329364Y-46537065D01*
X51327245Y-46634197D01*
X51288116Y-46723124D01*
X51275893Y-46735346D01*
X51274526Y-46750971D01*
X51953555Y-47430000D01*
X51947339Y-47430000D01*
X51845606Y-47457259D01*
X51754394Y-47509920D01*
X51679920Y-47584394D01*
X51627259Y-47675606D01*
X51600000Y-47777339D01*
X51600000Y-47783555D01*
X50920972Y-47104527D01*
X50869868Y-47177513D01*
X50773732Y-47383676D01*
X50714859Y-47603396D01*
X50714859Y-47603397D01*
X50695034Y-47830000D01*
X50714859Y-48056602D01*
X50714859Y-48056603D01*
X50773732Y-48276323D01*
X50869866Y-48482483D01*
X50869868Y-48482485D01*
X50920973Y-48555471D01*
X51600000Y-47876444D01*
X51600000Y-47882661D01*
X51627259Y-47984394D01*
X51679920Y-48075606D01*
X51754394Y-48150080D01*
X51845606Y-48202741D01*
X51947339Y-48230000D01*
X51953553Y-48230000D01*
X51274527Y-48909025D01*
X51274527Y-48909027D01*
X51347510Y-48960129D01*
X51347514Y-48960132D01*
X51388090Y-48979053D01*
X51466440Y-49036502D01*
X51516841Y-49119561D01*
X51531621Y-49215585D01*
X51508529Y-49309956D01*
X51451080Y-49388306D01*
X51388093Y-49430393D01*
X51347270Y-49449429D01*
X51347258Y-49449436D01*
X51225819Y-49534469D01*
X51136892Y-49573598D01*
X51082999Y-49579500D01*
X47101459Y-49579500D01*
X47083177Y-49583136D01*
X47064895Y-49586773D01*
X47064894Y-49586772D01*
X46908166Y-49617948D01*
X46908161Y-49617950D01*
X46854830Y-49640039D01*
X46726085Y-49693368D01*
X46726080Y-49693370D01*
X46655010Y-49740859D01*
X46655009Y-49740860D01*
X46562215Y-49802863D01*
X46562213Y-49802864D01*
X45024134Y-51340942D01*
X44943353Y-51394918D01*
X44869770Y-51412924D01*
X44853315Y-51414363D01*
X44853311Y-51414364D01*
X44633503Y-51473261D01*
X44633500Y-51473262D01*
X44427272Y-51569428D01*
X44427258Y-51569436D01*
X44240865Y-51699949D01*
X44079949Y-51860865D01*
X44013969Y-51955096D01*
X43943788Y-52022280D01*
X43853239Y-52057493D01*
X43756107Y-52055374D01*
X43667180Y-52016245D01*
X43606031Y-51955096D01*
X43540050Y-51860865D01*
X43540049Y-51860864D01*
X43540047Y-51860861D01*
X43379139Y-51699953D01*
X43379135Y-51699950D01*
X43379134Y-51699949D01*
X43192741Y-51569436D01*
X43192727Y-51569428D01*
X42986499Y-51473262D01*
X42986496Y-51473261D01*
X42766694Y-51414365D01*
X42766679Y-51414363D01*
X42540006Y-51394532D01*
X42539994Y-51394532D01*
X42313320Y-51414363D01*
X42313305Y-51414365D01*
X42093503Y-51473261D01*
X42093500Y-51473262D01*
X41887272Y-51569428D01*
X41887258Y-51569436D01*
X41700861Y-51699952D01*
X41653415Y-51747398D01*
X41572633Y-51801374D01*
X41477345Y-51820327D01*
X41382057Y-51801372D01*
X41301276Y-51747395D01*
X41247300Y-51666613D01*
X41244066Y-51658394D01*
X41243796Y-51657669D01*
X41157546Y-51542454D01*
X41042331Y-51456204D01*
X40962117Y-51426286D01*
X40907481Y-51405908D01*
X40847873Y-51399500D01*
X39152134Y-51399500D01*
X39152130Y-51399500D01*
X39152128Y-51399501D01*
X39139314Y-51400878D01*
X39092519Y-51405908D01*
X39092515Y-51405909D01*
X38957670Y-51456203D01*
X38842455Y-51542453D01*
X38842453Y-51542455D01*
X38756204Y-51657669D01*
X38705908Y-51792518D01*
X38699500Y-51852123D01*
X38699500Y-53547865D01*
X38699501Y-53547869D01*
X38705908Y-53607480D01*
X38705909Y-53607484D01*
X38752532Y-53732486D01*
X38756204Y-53742331D01*
X38842454Y-53857546D01*
X38957669Y-53943796D01*
X39092517Y-53994091D01*
X39152127Y-54000500D01*
X40847872Y-54000499D01*
X40907483Y-53994091D01*
X41042331Y-53943796D01*
X41141278Y-53869723D01*
X41228918Y-53827792D01*
X41325934Y-53822591D01*
X41417555Y-53854912D01*
X41489833Y-53919835D01*
X41531765Y-54007475D01*
X41539500Y-54069057D01*
X41539500Y-55522439D01*
X41520546Y-55617727D01*
X41466570Y-55698509D01*
X40134136Y-57030942D01*
X40053354Y-57084918D01*
X39979770Y-57102924D01*
X39963316Y-57104363D01*
X39963311Y-57104364D01*
X39743503Y-57163261D01*
X39743500Y-57163262D01*
X39537272Y-57259428D01*
X39537258Y-57259436D01*
X39350865Y-57389949D01*
X39189949Y-57550865D01*
X39059436Y-57737258D01*
X39059428Y-57737272D01*
X38963262Y-57943500D01*
X38963261Y-57943503D01*
X38904365Y-58163305D01*
X38904363Y-58163320D01*
X38884532Y-58389994D01*
X38884532Y-58389995D01*
X38899653Y-58562839D01*
X38889075Y-58659417D01*
X38842344Y-58744595D01*
X38766574Y-58805406D01*
X38673301Y-58832593D01*
X38576723Y-58822015D01*
X38491545Y-58775284D01*
X38475530Y-58760610D01*
X37887141Y-58172221D01*
X37887139Y-58172218D01*
X37747782Y-58032861D01*
X37718719Y-58013442D01*
X37583914Y-57923368D01*
X37583909Y-57923365D01*
X37494868Y-57886483D01*
X37455165Y-57870038D01*
X37401836Y-57847949D01*
X37401833Y-57847948D01*
X37241051Y-57815965D01*
X37241042Y-57815965D01*
X37208541Y-57809500D01*
X37208540Y-57809500D01*
X35836213Y-57809500D01*
X35787636Y-57804716D01*
X35686003Y-57784500D01*
X35033997Y-57784500D01*
X34934935Y-57804204D01*
X34835871Y-57823909D01*
X34649248Y-57901211D01*
X34649238Y-57901217D01*
X34481287Y-58013437D01*
X34338437Y-58156287D01*
X34226217Y-58324238D01*
X34226211Y-58324248D01*
X34148909Y-58510871D01*
X34109500Y-58708998D01*
X12500500Y-58708998D01*
X12500500Y-55159994D01*
X18494532Y-55159994D01*
X18494532Y-55160005D01*
X18514363Y-55386679D01*
X18514365Y-55386694D01*
X18573261Y-55606496D01*
X18573262Y-55606499D01*
X18669428Y-55812727D01*
X18669436Y-55812741D01*
X18744543Y-55920005D01*
X18799953Y-55999139D01*
X18960861Y-56160047D01*
X18960864Y-56160049D01*
X18960865Y-56160050D01*
X19147258Y-56290563D01*
X19147262Y-56290565D01*
X19147266Y-56290568D01*
X19353504Y-56386739D01*
X19573308Y-56445635D01*
X19592984Y-56447356D01*
X19799994Y-56465468D01*
X19800000Y-56465468D01*
X19800006Y-56465468D01*
X19979668Y-56449749D01*
X20026692Y-56445635D01*
X20246496Y-56386739D01*
X20452734Y-56290568D01*
X20639139Y-56160047D01*
X20800047Y-55999139D01*
X20930568Y-55812734D01*
X21026739Y-55606496D01*
X21085635Y-55386692D01*
X21096083Y-55267272D01*
X21105468Y-55160005D01*
X21105468Y-55159994D01*
X22544532Y-55159994D01*
X22544532Y-55160005D01*
X22564363Y-55386679D01*
X22564365Y-55386694D01*
X22623261Y-55606496D01*
X22623262Y-55606499D01*
X22719428Y-55812727D01*
X22719436Y-55812741D01*
X22794543Y-55920005D01*
X22849953Y-55999139D01*
X23010861Y-56160047D01*
X23010864Y-56160049D01*
X23010865Y-56160050D01*
X23197258Y-56290563D01*
X23197262Y-56290565D01*
X23197266Y-56290568D01*
X23403504Y-56386739D01*
X23623308Y-56445635D01*
X23642984Y-56447356D01*
X23849994Y-56465468D01*
X23850000Y-56465468D01*
X23850006Y-56465468D01*
X24029668Y-56449749D01*
X24076692Y-56445635D01*
X24296496Y-56386739D01*
X24502734Y-56290568D01*
X24689139Y-56160047D01*
X24850047Y-55999139D01*
X24980568Y-55812734D01*
X25076739Y-55606496D01*
X25135635Y-55386692D01*
X25146083Y-55267272D01*
X25155468Y-55160005D01*
X25155468Y-55159994D01*
X26594532Y-55159994D01*
X26594532Y-55160005D01*
X26614363Y-55386679D01*
X26614365Y-55386694D01*
X26673261Y-55606496D01*
X26673262Y-55606499D01*
X26769428Y-55812727D01*
X26769436Y-55812741D01*
X26844543Y-55920005D01*
X26899953Y-55999139D01*
X27060861Y-56160047D01*
X27060864Y-56160049D01*
X27060865Y-56160050D01*
X27247258Y-56290563D01*
X27247262Y-56290565D01*
X27247266Y-56290568D01*
X27453504Y-56386739D01*
X27673308Y-56445635D01*
X27692984Y-56447356D01*
X27899994Y-56465468D01*
X27900000Y-56465468D01*
X27900006Y-56465468D01*
X28079668Y-56449749D01*
X28126692Y-56445635D01*
X28346496Y-56386739D01*
X28552734Y-56290568D01*
X28739139Y-56160047D01*
X28900047Y-55999139D01*
X29030568Y-55812734D01*
X29126739Y-55606496D01*
X29185635Y-55386692D01*
X29196083Y-55267272D01*
X29205468Y-55160005D01*
X29205468Y-55159994D01*
X30644532Y-55159994D01*
X30644532Y-55160005D01*
X30664363Y-55386679D01*
X30664365Y-55386694D01*
X30723261Y-55606496D01*
X30723262Y-55606499D01*
X30819428Y-55812727D01*
X30819436Y-55812741D01*
X30894543Y-55920005D01*
X30949953Y-55999139D01*
X31110861Y-56160047D01*
X31110864Y-56160049D01*
X31110865Y-56160050D01*
X31297258Y-56290563D01*
X31297262Y-56290565D01*
X31297266Y-56290568D01*
X31503504Y-56386739D01*
X31723308Y-56445635D01*
X31742984Y-56447356D01*
X31949994Y-56465468D01*
X31950000Y-56465468D01*
X31950006Y-56465468D01*
X32129668Y-56449749D01*
X32176692Y-56445635D01*
X32396496Y-56386739D01*
X32602734Y-56290568D01*
X32789139Y-56160047D01*
X32950047Y-55999139D01*
X33080568Y-55812734D01*
X33176739Y-55606496D01*
X33235635Y-55386692D01*
X33246083Y-55267272D01*
X33255468Y-55160005D01*
X33255468Y-55159994D01*
X34694532Y-55159994D01*
X34694532Y-55160005D01*
X34714363Y-55386679D01*
X34714365Y-55386694D01*
X34773261Y-55606496D01*
X34773262Y-55606499D01*
X34869428Y-55812727D01*
X34869436Y-55812741D01*
X34944543Y-55920005D01*
X34999953Y-55999139D01*
X35160861Y-56160047D01*
X35160864Y-56160049D01*
X35160865Y-56160050D01*
X35347258Y-56290563D01*
X35347262Y-56290565D01*
X35347266Y-56290568D01*
X35553504Y-56386739D01*
X35773308Y-56445635D01*
X35792984Y-56447356D01*
X35999994Y-56465468D01*
X36000000Y-56465468D01*
X36000006Y-56465468D01*
X36179668Y-56449749D01*
X36226692Y-56445635D01*
X36446496Y-56386739D01*
X36652734Y-56290568D01*
X36839139Y-56160047D01*
X37000047Y-55999139D01*
X37130568Y-55812734D01*
X37226739Y-55606496D01*
X37285635Y-55386692D01*
X37296083Y-55267272D01*
X37305468Y-55160005D01*
X37305468Y-55159994D01*
X37285636Y-54933320D01*
X37285635Y-54933308D01*
X37226739Y-54713504D01*
X37130568Y-54507266D01*
X37130565Y-54507262D01*
X37130563Y-54507258D01*
X37000050Y-54320865D01*
X37000049Y-54320864D01*
X37000047Y-54320861D01*
X36839139Y-54159953D01*
X36839135Y-54159950D01*
X36839134Y-54159949D01*
X36652741Y-54029436D01*
X36652727Y-54029428D01*
X36446499Y-53933262D01*
X36446496Y-53933261D01*
X36226694Y-53874365D01*
X36226679Y-53874363D01*
X36000006Y-53854532D01*
X35999994Y-53854532D01*
X35773320Y-53874363D01*
X35773305Y-53874365D01*
X35553503Y-53933261D01*
X35553500Y-53933262D01*
X35347272Y-54029428D01*
X35347258Y-54029436D01*
X35160865Y-54159949D01*
X34999949Y-54320865D01*
X34869436Y-54507258D01*
X34869428Y-54507272D01*
X34773262Y-54713500D01*
X34773261Y-54713503D01*
X34714365Y-54933305D01*
X34714363Y-54933320D01*
X34694532Y-55159994D01*
X33255468Y-55159994D01*
X33235636Y-54933320D01*
X33235635Y-54933308D01*
X33176739Y-54713504D01*
X33080568Y-54507266D01*
X33080565Y-54507262D01*
X33080563Y-54507258D01*
X32950050Y-54320865D01*
X32950049Y-54320864D01*
X32950047Y-54320861D01*
X32789139Y-54159953D01*
X32789135Y-54159950D01*
X32789134Y-54159949D01*
X32602741Y-54029436D01*
X32602727Y-54029428D01*
X32396499Y-53933262D01*
X32396496Y-53933261D01*
X32176694Y-53874365D01*
X32176679Y-53874363D01*
X31950006Y-53854532D01*
X31949994Y-53854532D01*
X31723320Y-53874363D01*
X31723305Y-53874365D01*
X31503503Y-53933261D01*
X31503500Y-53933262D01*
X31297272Y-54029428D01*
X31297258Y-54029436D01*
X31110865Y-54159949D01*
X30949949Y-54320865D01*
X30819436Y-54507258D01*
X30819428Y-54507272D01*
X30723262Y-54713500D01*
X30723261Y-54713503D01*
X30664365Y-54933305D01*
X30664363Y-54933320D01*
X30644532Y-55159994D01*
X29205468Y-55159994D01*
X29185636Y-54933320D01*
X29185635Y-54933308D01*
X29126739Y-54713504D01*
X29030568Y-54507266D01*
X29030565Y-54507262D01*
X29030563Y-54507258D01*
X28900050Y-54320865D01*
X28900049Y-54320864D01*
X28900047Y-54320861D01*
X28739139Y-54159953D01*
X28739135Y-54159950D01*
X28739134Y-54159949D01*
X28552741Y-54029436D01*
X28552727Y-54029428D01*
X28346499Y-53933262D01*
X28346496Y-53933261D01*
X28126694Y-53874365D01*
X28126679Y-53874363D01*
X27900006Y-53854532D01*
X27899994Y-53854532D01*
X27673320Y-53874363D01*
X27673305Y-53874365D01*
X27453503Y-53933261D01*
X27453500Y-53933262D01*
X27247272Y-54029428D01*
X27247258Y-54029436D01*
X27060865Y-54159949D01*
X26899949Y-54320865D01*
X26769436Y-54507258D01*
X26769428Y-54507272D01*
X26673262Y-54713500D01*
X26673261Y-54713503D01*
X26614365Y-54933305D01*
X26614363Y-54933320D01*
X26594532Y-55159994D01*
X25155468Y-55159994D01*
X25135636Y-54933320D01*
X25135635Y-54933308D01*
X25076739Y-54713504D01*
X24980568Y-54507266D01*
X24980565Y-54507262D01*
X24980563Y-54507258D01*
X24850050Y-54320865D01*
X24850049Y-54320864D01*
X24850047Y-54320861D01*
X24689139Y-54159953D01*
X24689135Y-54159950D01*
X24689134Y-54159949D01*
X24502741Y-54029436D01*
X24502727Y-54029428D01*
X24296499Y-53933262D01*
X24296496Y-53933261D01*
X24076694Y-53874365D01*
X24076679Y-53874363D01*
X23850006Y-53854532D01*
X23849994Y-53854532D01*
X23623320Y-53874363D01*
X23623305Y-53874365D01*
X23403503Y-53933261D01*
X23403500Y-53933262D01*
X23197272Y-54029428D01*
X23197258Y-54029436D01*
X23010865Y-54159949D01*
X22849949Y-54320865D01*
X22719436Y-54507258D01*
X22719428Y-54507272D01*
X22623262Y-54713500D01*
X22623261Y-54713503D01*
X22564365Y-54933305D01*
X22564363Y-54933320D01*
X22544532Y-55159994D01*
X21105468Y-55159994D01*
X21085636Y-54933320D01*
X21085635Y-54933308D01*
X21026739Y-54713504D01*
X20930568Y-54507266D01*
X20930565Y-54507262D01*
X20930563Y-54507258D01*
X20800050Y-54320865D01*
X20800049Y-54320864D01*
X20800047Y-54320861D01*
X20639139Y-54159953D01*
X20639135Y-54159950D01*
X20639134Y-54159949D01*
X20452741Y-54029436D01*
X20452727Y-54029428D01*
X20246499Y-53933262D01*
X20246496Y-53933261D01*
X20026694Y-53874365D01*
X20026679Y-53874363D01*
X19800006Y-53854532D01*
X19799994Y-53854532D01*
X19573320Y-53874363D01*
X19573305Y-53874365D01*
X19353503Y-53933261D01*
X19353500Y-53933262D01*
X19147272Y-54029428D01*
X19147258Y-54029436D01*
X18960865Y-54159949D01*
X18799949Y-54320865D01*
X18669436Y-54507258D01*
X18669428Y-54507272D01*
X18573262Y-54713500D01*
X18573261Y-54713503D01*
X18514365Y-54933305D01*
X18514363Y-54933320D01*
X18494532Y-55159994D01*
X12500500Y-55159994D01*
X12500500Y-44999994D01*
X18494532Y-44999994D01*
X18494532Y-45000005D01*
X18514363Y-45226679D01*
X18514365Y-45226694D01*
X18573261Y-45446496D01*
X18573262Y-45446499D01*
X18669428Y-45652727D01*
X18669436Y-45652741D01*
X18799949Y-45839134D01*
X18799953Y-45839139D01*
X18960861Y-46000047D01*
X18960864Y-46000049D01*
X18960865Y-46000050D01*
X19147258Y-46130563D01*
X19147262Y-46130565D01*
X19147266Y-46130568D01*
X19147270Y-46130569D01*
X19147272Y-46130571D01*
X19229981Y-46169139D01*
X19353504Y-46226739D01*
X19573308Y-46285635D01*
X19592984Y-46287356D01*
X19799994Y-46305468D01*
X19800000Y-46305468D01*
X19800006Y-46305468D01*
X19979668Y-46289749D01*
X20026692Y-46285635D01*
X20246496Y-46226739D01*
X20452734Y-46130568D01*
X20639139Y-46000047D01*
X20800047Y-45839139D01*
X20930568Y-45652734D01*
X21026739Y-45446496D01*
X21085635Y-45226692D01*
X21096430Y-45103305D01*
X21105468Y-45000005D01*
X21105468Y-44999994D01*
X22544532Y-44999994D01*
X22544532Y-45000005D01*
X22564363Y-45226679D01*
X22564365Y-45226694D01*
X22623261Y-45446496D01*
X22623262Y-45446499D01*
X22719428Y-45652727D01*
X22719436Y-45652741D01*
X22849949Y-45839134D01*
X22849953Y-45839139D01*
X23010861Y-46000047D01*
X23010864Y-46000049D01*
X23010865Y-46000050D01*
X23197258Y-46130563D01*
X23197262Y-46130565D01*
X23197266Y-46130568D01*
X23197270Y-46130569D01*
X23197272Y-46130571D01*
X23279981Y-46169139D01*
X23403504Y-46226739D01*
X23623308Y-46285635D01*
X23642984Y-46287356D01*
X23849994Y-46305468D01*
X23850000Y-46305468D01*
X23850006Y-46305468D01*
X24029668Y-46289749D01*
X24076692Y-46285635D01*
X24296496Y-46226739D01*
X24502734Y-46130568D01*
X24689139Y-46000047D01*
X24850047Y-45839139D01*
X24980568Y-45652734D01*
X25076739Y-45446496D01*
X25135635Y-45226692D01*
X25146430Y-45103305D01*
X25155468Y-45000005D01*
X25155468Y-44999994D01*
X26594532Y-44999994D01*
X26594532Y-45000005D01*
X26614363Y-45226679D01*
X26614365Y-45226694D01*
X26673261Y-45446496D01*
X26673262Y-45446499D01*
X26769428Y-45652727D01*
X26769436Y-45652741D01*
X26899949Y-45839134D01*
X26899953Y-45839139D01*
X27060861Y-46000047D01*
X27060864Y-46000049D01*
X27060865Y-46000050D01*
X27247258Y-46130563D01*
X27247262Y-46130565D01*
X27247266Y-46130568D01*
X27247270Y-46130569D01*
X27247272Y-46130571D01*
X27329981Y-46169139D01*
X27453504Y-46226739D01*
X27673308Y-46285635D01*
X27692984Y-46287356D01*
X27899994Y-46305468D01*
X27900000Y-46305468D01*
X27900006Y-46305468D01*
X28079668Y-46289749D01*
X28126692Y-46285635D01*
X28346496Y-46226739D01*
X28552734Y-46130568D01*
X28739139Y-46000047D01*
X28900047Y-45839139D01*
X29030568Y-45652734D01*
X29126739Y-45446496D01*
X29185635Y-45226692D01*
X29196430Y-45103305D01*
X29205468Y-45000005D01*
X29205468Y-44999994D01*
X30644532Y-44999994D01*
X30644532Y-45000005D01*
X30664363Y-45226679D01*
X30664365Y-45226694D01*
X30723261Y-45446496D01*
X30723262Y-45446499D01*
X30819428Y-45652727D01*
X30819436Y-45652741D01*
X30949949Y-45839134D01*
X30949953Y-45839139D01*
X31110861Y-46000047D01*
X31110864Y-46000049D01*
X31110865Y-46000050D01*
X31297258Y-46130563D01*
X31297262Y-46130565D01*
X31297266Y-46130568D01*
X31297270Y-46130569D01*
X31297272Y-46130571D01*
X31379981Y-46169139D01*
X31503504Y-46226739D01*
X31723308Y-46285635D01*
X31742984Y-46287356D01*
X31949994Y-46305468D01*
X31950000Y-46305468D01*
X31950006Y-46305468D01*
X32129668Y-46289749D01*
X32176692Y-46285635D01*
X32396496Y-46226739D01*
X32602734Y-46130568D01*
X32789139Y-46000047D01*
X32950047Y-45839139D01*
X33080568Y-45652734D01*
X33176739Y-45446496D01*
X33235635Y-45226692D01*
X33246430Y-45103305D01*
X33255468Y-45000005D01*
X33255468Y-44999994D01*
X34694532Y-44999994D01*
X34694532Y-45000005D01*
X34714363Y-45226679D01*
X34714365Y-45226694D01*
X34773261Y-45446496D01*
X34773262Y-45446499D01*
X34869428Y-45652727D01*
X34869436Y-45652741D01*
X34999949Y-45839134D01*
X34999953Y-45839139D01*
X35160861Y-46000047D01*
X35160864Y-46000049D01*
X35160865Y-46000050D01*
X35347258Y-46130563D01*
X35347262Y-46130565D01*
X35347266Y-46130568D01*
X35347270Y-46130569D01*
X35347272Y-46130571D01*
X35429981Y-46169139D01*
X35553504Y-46226739D01*
X35773308Y-46285635D01*
X35792984Y-46287356D01*
X35999994Y-46305468D01*
X36000000Y-46305468D01*
X36000006Y-46305468D01*
X36179668Y-46289749D01*
X36226692Y-46285635D01*
X36446496Y-46226739D01*
X36652734Y-46130568D01*
X36839139Y-46000047D01*
X37000047Y-45839139D01*
X37130568Y-45652734D01*
X37226739Y-45446496D01*
X37285635Y-45226692D01*
X37296430Y-45103305D01*
X37298470Y-45079994D01*
X38694532Y-45079994D01*
X38694532Y-45080005D01*
X38714363Y-45306679D01*
X38714365Y-45306694D01*
X38773261Y-45526496D01*
X38773262Y-45526499D01*
X38869428Y-45732727D01*
X38869436Y-45732741D01*
X38999949Y-45919134D01*
X38999953Y-45919139D01*
X39160861Y-46080047D01*
X39160864Y-46080049D01*
X39160865Y-46080050D01*
X39347258Y-46210563D01*
X39347262Y-46210565D01*
X39347266Y-46210568D01*
X39347270Y-46210569D01*
X39347272Y-46210571D01*
X39471008Y-46268270D01*
X39553504Y-46306739D01*
X39773308Y-46365635D01*
X39792984Y-46367356D01*
X39999994Y-46385468D01*
X40000000Y-46385468D01*
X40000006Y-46385468D01*
X40179668Y-46369749D01*
X40226692Y-46365635D01*
X40446496Y-46306739D01*
X40652734Y-46210568D01*
X40839139Y-46080047D01*
X41000047Y-45919139D01*
X41066031Y-45824902D01*
X41136211Y-45757719D01*
X41226760Y-45722506D01*
X41323892Y-45724625D01*
X41412819Y-45763753D01*
X41473968Y-45824902D01*
X41539953Y-45919139D01*
X41700861Y-46080047D01*
X41700864Y-46080049D01*
X41700865Y-46080050D01*
X41887258Y-46210563D01*
X41887262Y-46210565D01*
X41887266Y-46210568D01*
X41887270Y-46210569D01*
X41887272Y-46210571D01*
X42011008Y-46268270D01*
X42093504Y-46306739D01*
X42313308Y-46365635D01*
X42332984Y-46367356D01*
X42539994Y-46385468D01*
X42540000Y-46385468D01*
X42540006Y-46385468D01*
X42719668Y-46369749D01*
X42766692Y-46365635D01*
X42986496Y-46306739D01*
X43192734Y-46210568D01*
X43379139Y-46080047D01*
X43540047Y-45919139D01*
X43606031Y-45824902D01*
X43676211Y-45757719D01*
X43766760Y-45722506D01*
X43863892Y-45724625D01*
X43952819Y-45763753D01*
X44013968Y-45824902D01*
X44079953Y-45919139D01*
X44240861Y-46080047D01*
X44240864Y-46080049D01*
X44240865Y-46080050D01*
X44427258Y-46210563D01*
X44427262Y-46210565D01*
X44427266Y-46210568D01*
X44427270Y-46210569D01*
X44427272Y-46210571D01*
X44551008Y-46268270D01*
X44633504Y-46306739D01*
X44853308Y-46365635D01*
X44872984Y-46367356D01*
X45079994Y-46385468D01*
X45080000Y-46385468D01*
X45080006Y-46385468D01*
X45259668Y-46369749D01*
X45306692Y-46365635D01*
X45526496Y-46306739D01*
X45732734Y-46210568D01*
X45919139Y-46080047D01*
X46080047Y-45919139D01*
X46146031Y-45824902D01*
X46216211Y-45757719D01*
X46306760Y-45722506D01*
X46403892Y-45724625D01*
X46492819Y-45763753D01*
X46553968Y-45824902D01*
X46619953Y-45919139D01*
X46780861Y-46080047D01*
X46780864Y-46080049D01*
X46780865Y-46080050D01*
X46967258Y-46210563D01*
X46967262Y-46210565D01*
X46967266Y-46210568D01*
X46967270Y-46210569D01*
X46967272Y-46210571D01*
X47091008Y-46268270D01*
X47173504Y-46306739D01*
X47393308Y-46365635D01*
X47412984Y-46367356D01*
X47619994Y-46385468D01*
X47620000Y-46385468D01*
X47620006Y-46385468D01*
X47799668Y-46369749D01*
X47846692Y-46365635D01*
X48066496Y-46306739D01*
X48272734Y-46210568D01*
X48459139Y-46080047D01*
X48620047Y-45919139D01*
X48750568Y-45732734D01*
X48846739Y-45526496D01*
X48905635Y-45306692D01*
X48923428Y-45103320D01*
X48925468Y-45080005D01*
X48925468Y-45079994D01*
X48905636Y-44853320D01*
X48905635Y-44853308D01*
X48846739Y-44633504D01*
X48750568Y-44427266D01*
X48750565Y-44427262D01*
X48750563Y-44427258D01*
X48620050Y-44240865D01*
X48620049Y-44240864D01*
X48620047Y-44240861D01*
X48459139Y-44079953D01*
X48459135Y-44079950D01*
X48459134Y-44079949D01*
X48272741Y-43949436D01*
X48272727Y-43949428D01*
X48066499Y-43853262D01*
X48066496Y-43853261D01*
X47846694Y-43794365D01*
X47846679Y-43794363D01*
X47620006Y-43774532D01*
X47619994Y-43774532D01*
X47393320Y-43794363D01*
X47393305Y-43794365D01*
X47173503Y-43853261D01*
X47173500Y-43853262D01*
X46967272Y-43949428D01*
X46967258Y-43949436D01*
X46780865Y-44079949D01*
X46619949Y-44240865D01*
X46553969Y-44335096D01*
X46483788Y-44402280D01*
X46393239Y-44437493D01*
X46296107Y-44435374D01*
X46207180Y-44396245D01*
X46146031Y-44335096D01*
X46080050Y-44240865D01*
X46080049Y-44240864D01*
X46080047Y-44240861D01*
X45919139Y-44079953D01*
X45919135Y-44079950D01*
X45919134Y-44079949D01*
X45732741Y-43949436D01*
X45732727Y-43949428D01*
X45526499Y-43853262D01*
X45526496Y-43853261D01*
X45306694Y-43794365D01*
X45306679Y-43794363D01*
X45080006Y-43774532D01*
X45079994Y-43774532D01*
X44853320Y-43794363D01*
X44853305Y-43794365D01*
X44633503Y-43853261D01*
X44633500Y-43853262D01*
X44427272Y-43949428D01*
X44427258Y-43949436D01*
X44240865Y-44079949D01*
X44079949Y-44240865D01*
X44013969Y-44335096D01*
X43943788Y-44402280D01*
X43853239Y-44437493D01*
X43756107Y-44435374D01*
X43667180Y-44396245D01*
X43606031Y-44335096D01*
X43540050Y-44240865D01*
X43540049Y-44240864D01*
X43540047Y-44240861D01*
X43379139Y-44079953D01*
X43379135Y-44079950D01*
X43379134Y-44079949D01*
X43192741Y-43949436D01*
X43192727Y-43949428D01*
X42986499Y-43853262D01*
X42986496Y-43853261D01*
X42766694Y-43794365D01*
X42766679Y-43794363D01*
X42540006Y-43774532D01*
X42539994Y-43774532D01*
X42313320Y-43794363D01*
X42313305Y-43794365D01*
X42093503Y-43853261D01*
X42093500Y-43853262D01*
X41887272Y-43949428D01*
X41887258Y-43949436D01*
X41700865Y-44079949D01*
X41539949Y-44240865D01*
X41473969Y-44335096D01*
X41403788Y-44402280D01*
X41313239Y-44437493D01*
X41216107Y-44435374D01*
X41127180Y-44396245D01*
X41066031Y-44335096D01*
X41000050Y-44240865D01*
X41000049Y-44240864D01*
X41000047Y-44240861D01*
X40839139Y-44079953D01*
X40839135Y-44079950D01*
X40839134Y-44079949D01*
X40652741Y-43949436D01*
X40652727Y-43949428D01*
X40446499Y-43853262D01*
X40446496Y-43853261D01*
X40226694Y-43794365D01*
X40226679Y-43794363D01*
X40000006Y-43774532D01*
X39999994Y-43774532D01*
X39773320Y-43794363D01*
X39773305Y-43794365D01*
X39553503Y-43853261D01*
X39553500Y-43853262D01*
X39347272Y-43949428D01*
X39347258Y-43949436D01*
X39160865Y-44079949D01*
X38999949Y-44240865D01*
X38869436Y-44427258D01*
X38869428Y-44427272D01*
X38773262Y-44633500D01*
X38773261Y-44633503D01*
X38714365Y-44853305D01*
X38714363Y-44853320D01*
X38694532Y-45079994D01*
X37298470Y-45079994D01*
X37305468Y-45000005D01*
X37305468Y-44999994D01*
X37285636Y-44773320D01*
X37285635Y-44773308D01*
X37226739Y-44553504D01*
X37156222Y-44402280D01*
X37130571Y-44347272D01*
X37130563Y-44347258D01*
X37000050Y-44160865D01*
X37000049Y-44160864D01*
X37000047Y-44160861D01*
X36839139Y-43999953D01*
X36839135Y-43999950D01*
X36839134Y-43999949D01*
X36652741Y-43869436D01*
X36652727Y-43869428D01*
X36446499Y-43773262D01*
X36446496Y-43773261D01*
X36226694Y-43714365D01*
X36226679Y-43714363D01*
X36000006Y-43694532D01*
X35999994Y-43694532D01*
X35773320Y-43714363D01*
X35773305Y-43714365D01*
X35553503Y-43773261D01*
X35553500Y-43773262D01*
X35347272Y-43869428D01*
X35347258Y-43869436D01*
X35160865Y-43999949D01*
X34999949Y-44160865D01*
X34869436Y-44347258D01*
X34869428Y-44347272D01*
X34773262Y-44553500D01*
X34773261Y-44553503D01*
X34714365Y-44773305D01*
X34714363Y-44773320D01*
X34694532Y-44999994D01*
X33255468Y-44999994D01*
X33235636Y-44773320D01*
X33235635Y-44773308D01*
X33176739Y-44553504D01*
X33106222Y-44402280D01*
X33080571Y-44347272D01*
X33080563Y-44347258D01*
X32950050Y-44160865D01*
X32950049Y-44160864D01*
X32950047Y-44160861D01*
X32789139Y-43999953D01*
X32789135Y-43999950D01*
X32789134Y-43999949D01*
X32602741Y-43869436D01*
X32602727Y-43869428D01*
X32396499Y-43773262D01*
X32396496Y-43773261D01*
X32176694Y-43714365D01*
X32176679Y-43714363D01*
X31950006Y-43694532D01*
X31949994Y-43694532D01*
X31723320Y-43714363D01*
X31723305Y-43714365D01*
X31503503Y-43773261D01*
X31503500Y-43773262D01*
X31297272Y-43869428D01*
X31297258Y-43869436D01*
X31110865Y-43999949D01*
X30949949Y-44160865D01*
X30819436Y-44347258D01*
X30819428Y-44347272D01*
X30723262Y-44553500D01*
X30723261Y-44553503D01*
X30664365Y-44773305D01*
X30664363Y-44773320D01*
X30644532Y-44999994D01*
X29205468Y-44999994D01*
X29185636Y-44773320D01*
X29185635Y-44773308D01*
X29126739Y-44553504D01*
X29056222Y-44402280D01*
X29030571Y-44347272D01*
X29030563Y-44347258D01*
X28900050Y-44160865D01*
X28900049Y-44160864D01*
X28900047Y-44160861D01*
X28739139Y-43999953D01*
X28739135Y-43999950D01*
X28739134Y-43999949D01*
X28552741Y-43869436D01*
X28552727Y-43869428D01*
X28346499Y-43773262D01*
X28346496Y-43773261D01*
X28126694Y-43714365D01*
X28126679Y-43714363D01*
X27900006Y-43694532D01*
X27899994Y-43694532D01*
X27673320Y-43714363D01*
X27673305Y-43714365D01*
X27453503Y-43773261D01*
X27453500Y-43773262D01*
X27247272Y-43869428D01*
X27247258Y-43869436D01*
X27060865Y-43999949D01*
X26899949Y-44160865D01*
X26769436Y-44347258D01*
X26769428Y-44347272D01*
X26673262Y-44553500D01*
X26673261Y-44553503D01*
X26614365Y-44773305D01*
X26614363Y-44773320D01*
X26594532Y-44999994D01*
X25155468Y-44999994D01*
X25135636Y-44773320D01*
X25135635Y-44773308D01*
X25076739Y-44553504D01*
X25006222Y-44402280D01*
X24980571Y-44347272D01*
X24980563Y-44347258D01*
X24850050Y-44160865D01*
X24850049Y-44160864D01*
X24850047Y-44160861D01*
X24689139Y-43999953D01*
X24689135Y-43999950D01*
X24689134Y-43999949D01*
X24502741Y-43869436D01*
X24502727Y-43869428D01*
X24296499Y-43773262D01*
X24296496Y-43773261D01*
X24076694Y-43714365D01*
X24076679Y-43714363D01*
X23850006Y-43694532D01*
X23849994Y-43694532D01*
X23623320Y-43714363D01*
X23623305Y-43714365D01*
X23403503Y-43773261D01*
X23403500Y-43773262D01*
X23197272Y-43869428D01*
X23197258Y-43869436D01*
X23010865Y-43999949D01*
X22849949Y-44160865D01*
X22719436Y-44347258D01*
X22719428Y-44347272D01*
X22623262Y-44553500D01*
X22623261Y-44553503D01*
X22564365Y-44773305D01*
X22564363Y-44773320D01*
X22544532Y-44999994D01*
X21105468Y-44999994D01*
X21085636Y-44773320D01*
X21085635Y-44773308D01*
X21026739Y-44553504D01*
X20956222Y-44402280D01*
X20930571Y-44347272D01*
X20930563Y-44347258D01*
X20800050Y-44160865D01*
X20800049Y-44160864D01*
X20800047Y-44160861D01*
X20639139Y-43999953D01*
X20639135Y-43999950D01*
X20639134Y-43999949D01*
X20452741Y-43869436D01*
X20452727Y-43869428D01*
X20246499Y-43773262D01*
X20246496Y-43773261D01*
X20026694Y-43714365D01*
X20026679Y-43714363D01*
X19800006Y-43694532D01*
X19799994Y-43694532D01*
X19573320Y-43714363D01*
X19573305Y-43714365D01*
X19353503Y-43773261D01*
X19353500Y-43773262D01*
X19147272Y-43869428D01*
X19147258Y-43869436D01*
X18960865Y-43999949D01*
X18799949Y-44160865D01*
X18669436Y-44347258D01*
X18669428Y-44347272D01*
X18573262Y-44553500D01*
X18573261Y-44553503D01*
X18514365Y-44773305D01*
X18514363Y-44773320D01*
X18494532Y-44999994D01*
X12500500Y-44999994D01*
X12500500Y-40739994D01*
X50194532Y-40739994D01*
X50194532Y-40740005D01*
X50214363Y-40966679D01*
X50214365Y-40966694D01*
X50273261Y-41186496D01*
X50273262Y-41186499D01*
X50369428Y-41392727D01*
X50369436Y-41392741D01*
X50499949Y-41579134D01*
X50499953Y-41579139D01*
X50660861Y-41740047D01*
X50660864Y-41740049D01*
X50660865Y-41740050D01*
X50847258Y-41870563D01*
X50847262Y-41870565D01*
X50847266Y-41870568D01*
X51053504Y-41966739D01*
X51273308Y-42025635D01*
X51292984Y-42027356D01*
X51499994Y-42045468D01*
X51500000Y-42045468D01*
X51500006Y-42045468D01*
X51679668Y-42029749D01*
X51726692Y-42025635D01*
X51946496Y-41966739D01*
X52152734Y-41870568D01*
X52339139Y-41740047D01*
X52500047Y-41579139D01*
X52630568Y-41392734D01*
X52726739Y-41186496D01*
X52785635Y-40966692D01*
X52805468Y-40740000D01*
X52805468Y-40739994D01*
X53694532Y-40739994D01*
X53694532Y-40740005D01*
X53714363Y-40966679D01*
X53714365Y-40966694D01*
X53773261Y-41186496D01*
X53773262Y-41186499D01*
X53869428Y-41392727D01*
X53869436Y-41392741D01*
X53999949Y-41579134D01*
X53999953Y-41579139D01*
X54160861Y-41740047D01*
X54160864Y-41740049D01*
X54160865Y-41740050D01*
X54347258Y-41870563D01*
X54347262Y-41870565D01*
X54347266Y-41870568D01*
X54553504Y-41966739D01*
X54773308Y-42025635D01*
X54792984Y-42027356D01*
X54999994Y-42045468D01*
X55000000Y-42045468D01*
X55000006Y-42045468D01*
X55179668Y-42029749D01*
X55226692Y-42025635D01*
X55446496Y-41966739D01*
X55652734Y-41870568D01*
X55839139Y-41740047D01*
X56000047Y-41579139D01*
X56130568Y-41392734D01*
X56226739Y-41186496D01*
X56285635Y-40966692D01*
X56305468Y-40740000D01*
X56305468Y-40739994D01*
X56285636Y-40513320D01*
X56285635Y-40513308D01*
X56226739Y-40293504D01*
X56130568Y-40087266D01*
X56130565Y-40087262D01*
X56130563Y-40087258D01*
X56000050Y-39900865D01*
X56000049Y-39900864D01*
X56000047Y-39900861D01*
X55839139Y-39739953D01*
X55839135Y-39739950D01*
X55839134Y-39739949D01*
X55652741Y-39609436D01*
X55652727Y-39609428D01*
X55446499Y-39513262D01*
X55446496Y-39513261D01*
X55226694Y-39454365D01*
X55226679Y-39454363D01*
X55000006Y-39434532D01*
X54999994Y-39434532D01*
X54773320Y-39454363D01*
X54773305Y-39454365D01*
X54553503Y-39513261D01*
X54553500Y-39513262D01*
X54347272Y-39609428D01*
X54347258Y-39609436D01*
X54160865Y-39739949D01*
X53999949Y-39900865D01*
X53869436Y-40087258D01*
X53869428Y-40087272D01*
X53773262Y-40293500D01*
X53773261Y-40293503D01*
X53714365Y-40513305D01*
X53714363Y-40513320D01*
X53694532Y-40739994D01*
X52805468Y-40739994D01*
X52785636Y-40513320D01*
X52785635Y-40513308D01*
X52726739Y-40293504D01*
X52630568Y-40087266D01*
X52630565Y-40087262D01*
X52630563Y-40087258D01*
X52500050Y-39900865D01*
X52500049Y-39900864D01*
X52500047Y-39900861D01*
X52339139Y-39739953D01*
X52339135Y-39739950D01*
X52339134Y-39739949D01*
X52152741Y-39609436D01*
X52152727Y-39609428D01*
X51946499Y-39513262D01*
X51946496Y-39513261D01*
X51726694Y-39454365D01*
X51726679Y-39454363D01*
X51500006Y-39434532D01*
X51499994Y-39434532D01*
X51273320Y-39454363D01*
X51273305Y-39454365D01*
X51053503Y-39513261D01*
X51053500Y-39513262D01*
X50847272Y-39609428D01*
X50847258Y-39609436D01*
X50660865Y-39739949D01*
X50499949Y-39900865D01*
X50369436Y-40087258D01*
X50369428Y-40087272D01*
X50273262Y-40293500D01*
X50273261Y-40293503D01*
X50214365Y-40513305D01*
X50214363Y-40513320D01*
X50194532Y-40739994D01*
X12500500Y-40739994D01*
X12500500Y-38962123D01*
X73019500Y-38962123D01*
X73019500Y-41037865D01*
X73019500Y-41037868D01*
X73019501Y-41037872D01*
X73021567Y-41057093D01*
X73025908Y-41097480D01*
X73025909Y-41097484D01*
X73076203Y-41232329D01*
X73076204Y-41232331D01*
X73162454Y-41347546D01*
X73277669Y-41433796D01*
X73412517Y-41484091D01*
X73472127Y-41490500D01*
X77527872Y-41490499D01*
X77587483Y-41484091D01*
X77722331Y-41433796D01*
X77837546Y-41347546D01*
X77923796Y-41232331D01*
X77974091Y-41097483D01*
X77980500Y-41037873D01*
X77980499Y-38962128D01*
X77974091Y-38902517D01*
X77923796Y-38767669D01*
X77837546Y-38652454D01*
X77722331Y-38566204D01*
X77642117Y-38536286D01*
X77587481Y-38515908D01*
X77527873Y-38509500D01*
X73472134Y-38509500D01*
X73472130Y-38509500D01*
X73472128Y-38509501D01*
X73459314Y-38510878D01*
X73412519Y-38515908D01*
X73412515Y-38515909D01*
X73277670Y-38566203D01*
X73162455Y-38652453D01*
X73162453Y-38652455D01*
X73076204Y-38767669D01*
X73025908Y-38902518D01*
X73019500Y-38962123D01*
X12500500Y-38962123D01*
X12500500Y-33532123D01*
X22999500Y-33532123D01*
X22999500Y-37627865D01*
X22999500Y-37627868D01*
X22999501Y-37627872D01*
X23000016Y-37632661D01*
X23005908Y-37687480D01*
X23005909Y-37687484D01*
X23050337Y-37806602D01*
X23056204Y-37822331D01*
X23142454Y-37937546D01*
X23257669Y-38023796D01*
X23392517Y-38074091D01*
X23452127Y-38080500D01*
X27547872Y-38080499D01*
X27607483Y-38074091D01*
X27742331Y-38023796D01*
X27857546Y-37937546D01*
X27943796Y-37822331D01*
X27994091Y-37687483D01*
X28000500Y-37627873D01*
X28000500Y-36732123D01*
X38699500Y-36732123D01*
X38699500Y-38427865D01*
X38699500Y-38427868D01*
X38699501Y-38427872D01*
X38701567Y-38447093D01*
X38705908Y-38487480D01*
X38705909Y-38487484D01*
X38735270Y-38566204D01*
X38756204Y-38622331D01*
X38842454Y-38737546D01*
X38957669Y-38823796D01*
X39092517Y-38874091D01*
X39152127Y-38880500D01*
X40847872Y-38880499D01*
X40907483Y-38874091D01*
X41042331Y-38823796D01*
X41157546Y-38737546D01*
X41243796Y-38622331D01*
X41294091Y-38487483D01*
X41300500Y-38427873D01*
X41300499Y-37580000D01*
X43695034Y-37580000D01*
X43714859Y-37806602D01*
X43714859Y-37806603D01*
X43773732Y-38026323D01*
X43869866Y-38232483D01*
X43869868Y-38232485D01*
X43920973Y-38305471D01*
X44600000Y-37626444D01*
X44600000Y-37632661D01*
X44627259Y-37734394D01*
X44679920Y-37825606D01*
X44754394Y-37900080D01*
X44845606Y-37952741D01*
X44947339Y-37980000D01*
X44953553Y-37980000D01*
X44274527Y-38659025D01*
X44274527Y-38659027D01*
X44347510Y-38710129D01*
X44347514Y-38710132D01*
X44553676Y-38806267D01*
X44773396Y-38865140D01*
X45000000Y-38884965D01*
X45226602Y-38865140D01*
X45226603Y-38865140D01*
X45446323Y-38806267D01*
X45652486Y-38710132D01*
X45652488Y-38710130D01*
X45725471Y-38659027D01*
X45725471Y-38659026D01*
X45046445Y-37980000D01*
X45052661Y-37980000D01*
X45154394Y-37952741D01*
X45245606Y-37900080D01*
X45320080Y-37825606D01*
X45372741Y-37734394D01*
X45400000Y-37632661D01*
X45400000Y-37626445D01*
X46079026Y-38305471D01*
X46079027Y-38305471D01*
X46130130Y-38232488D01*
X46130132Y-38232486D01*
X46226267Y-38026323D01*
X46285140Y-37806603D01*
X46285140Y-37806602D01*
X46304965Y-37580000D01*
X46285140Y-37353397D01*
X46285140Y-37353396D01*
X46226267Y-37133676D01*
X46130132Y-36927514D01*
X46130129Y-36927510D01*
X46079027Y-36854527D01*
X46079025Y-36854527D01*
X45400000Y-37533552D01*
X45400000Y-37527339D01*
X45372741Y-37425606D01*
X45320080Y-37334394D01*
X45245606Y-37259920D01*
X45154394Y-37207259D01*
X45052661Y-37180000D01*
X45046445Y-37180000D01*
X45725472Y-36500973D01*
X45652485Y-36449868D01*
X45652483Y-36449866D01*
X45446323Y-36353732D01*
X45226603Y-36294859D01*
X45000000Y-36275034D01*
X44773397Y-36294859D01*
X44773396Y-36294859D01*
X44553676Y-36353732D01*
X44347513Y-36449868D01*
X44274527Y-36500972D01*
X44953555Y-37180000D01*
X44947339Y-37180000D01*
X44845606Y-37207259D01*
X44754394Y-37259920D01*
X44679920Y-37334394D01*
X44627259Y-37425606D01*
X44600000Y-37527339D01*
X44600000Y-37533555D01*
X43920972Y-36854527D01*
X43869868Y-36927513D01*
X43773732Y-37133676D01*
X43714859Y-37353396D01*
X43714859Y-37353397D01*
X43695034Y-37580000D01*
X41300499Y-37580000D01*
X41300499Y-36732128D01*
X41294091Y-36672517D01*
X41243796Y-36537669D01*
X41157546Y-36422454D01*
X41042331Y-36336204D01*
X40962117Y-36306286D01*
X40907481Y-36285908D01*
X40847873Y-36279500D01*
X39152134Y-36279500D01*
X39152130Y-36279500D01*
X39152128Y-36279501D01*
X39139314Y-36280878D01*
X39092519Y-36285908D01*
X39092515Y-36285909D01*
X38957670Y-36336203D01*
X38842455Y-36422453D01*
X38842453Y-36422455D01*
X38756204Y-36537669D01*
X38705908Y-36672518D01*
X38699500Y-36732123D01*
X28000500Y-36732123D01*
X28000499Y-34749999D01*
X73041022Y-34749999D01*
X73041024Y-34750000D01*
X74889175Y-34750000D01*
X74865364Y-34807485D01*
X74840000Y-34934996D01*
X74840000Y-35065004D01*
X74865364Y-35192515D01*
X74889175Y-35250000D01*
X73041023Y-35250000D01*
X73056686Y-35348898D01*
X73056690Y-35348912D01*
X73129161Y-35571956D01*
X73235640Y-35780934D01*
X73373489Y-35970666D01*
X73539333Y-36136510D01*
X73729065Y-36274359D01*
X73938043Y-36380838D01*
X74161093Y-36453311D01*
X74392724Y-36489999D01*
X74392737Y-36490000D01*
X75249999Y-36490000D01*
X75250000Y-36489999D01*
X75250000Y-35610824D01*
X75307485Y-35634636D01*
X75434996Y-35660000D01*
X75565004Y-35660000D01*
X75692515Y-35634636D01*
X75750000Y-35610824D01*
X75750000Y-36489999D01*
X75750001Y-36490000D01*
X76607263Y-36490000D01*
X76607275Y-36489999D01*
X76838906Y-36453311D01*
X77061956Y-36380838D01*
X77270934Y-36274359D01*
X77460666Y-36136510D01*
X77626510Y-35970666D01*
X77764359Y-35780934D01*
X77870838Y-35571956D01*
X77943309Y-35348912D01*
X77943313Y-35348898D01*
X77958977Y-35250000D01*
X76110825Y-35250000D01*
X76134636Y-35192515D01*
X76160000Y-35065004D01*
X76160000Y-34934996D01*
X76134636Y-34807485D01*
X76110825Y-34750000D01*
X77958976Y-34750000D01*
X77958977Y-34749999D01*
X77943313Y-34651101D01*
X77943309Y-34651087D01*
X77870838Y-34428043D01*
X77764359Y-34219065D01*
X77626510Y-34029333D01*
X77460666Y-33863489D01*
X77270934Y-33725640D01*
X77061956Y-33619161D01*
X76838906Y-33546688D01*
X76607275Y-33510000D01*
X75750001Y-33510000D01*
X75750000Y-33510001D01*
X75750000Y-34389175D01*
X75692515Y-34365364D01*
X75565004Y-34340000D01*
X75434996Y-34340000D01*
X75307485Y-34365364D01*
X75250000Y-34389175D01*
X75250000Y-33510001D01*
X75249999Y-33510000D01*
X74392724Y-33510000D01*
X74161093Y-33546688D01*
X73938043Y-33619161D01*
X73729065Y-33725640D01*
X73539333Y-33863489D01*
X73373489Y-34029333D01*
X73235640Y-34219065D01*
X73129161Y-34428043D01*
X73056690Y-34651087D01*
X73056686Y-34651101D01*
X73041022Y-34749999D01*
X28000499Y-34749999D01*
X28000499Y-33532128D01*
X27994091Y-33472517D01*
X27943796Y-33337669D01*
X27857546Y-33222454D01*
X27742331Y-33136204D01*
X27662117Y-33106286D01*
X27607481Y-33085908D01*
X27547873Y-33079500D01*
X23452134Y-33079500D01*
X23452130Y-33079500D01*
X23452128Y-33079501D01*
X23439314Y-33080878D01*
X23392519Y-33085908D01*
X23392515Y-33085909D01*
X23257670Y-33136203D01*
X23142455Y-33222453D01*
X23142453Y-33222455D01*
X23056204Y-33337669D01*
X23005908Y-33472518D01*
X22999500Y-33532123D01*
X12500500Y-33532123D01*
X12500500Y-30579994D01*
X50194532Y-30579994D01*
X50194532Y-30580005D01*
X50214363Y-30806679D01*
X50214365Y-30806694D01*
X50273261Y-31026496D01*
X50273262Y-31026499D01*
X50369428Y-31232727D01*
X50369436Y-31232741D01*
X50499949Y-31419134D01*
X50499953Y-31419139D01*
X50660861Y-31580047D01*
X50660864Y-31580049D01*
X50660865Y-31580050D01*
X50847258Y-31710563D01*
X50847262Y-31710565D01*
X50847266Y-31710568D01*
X51053504Y-31806739D01*
X51273308Y-31865635D01*
X51292984Y-31867356D01*
X51499994Y-31885468D01*
X51500000Y-31885468D01*
X51500006Y-31885468D01*
X51679668Y-31869749D01*
X51726692Y-31865635D01*
X51946496Y-31806739D01*
X52152734Y-31710568D01*
X52339139Y-31580047D01*
X52500047Y-31419139D01*
X52630568Y-31232734D01*
X52726739Y-31026496D01*
X52785635Y-30806692D01*
X52805468Y-30580000D01*
X52805468Y-30579994D01*
X53694532Y-30579994D01*
X53694532Y-30580005D01*
X53714363Y-30806679D01*
X53714365Y-30806694D01*
X53773261Y-31026496D01*
X53773262Y-31026499D01*
X53869428Y-31232727D01*
X53869436Y-31232741D01*
X53999949Y-31419134D01*
X53999953Y-31419139D01*
X54160861Y-31580047D01*
X54160864Y-31580049D01*
X54160865Y-31580050D01*
X54347258Y-31710563D01*
X54347262Y-31710565D01*
X54347266Y-31710568D01*
X54553504Y-31806739D01*
X54773308Y-31865635D01*
X54792984Y-31867356D01*
X54999994Y-31885468D01*
X55000000Y-31885468D01*
X55000006Y-31885468D01*
X55179668Y-31869749D01*
X55226692Y-31865635D01*
X55446496Y-31806739D01*
X55652734Y-31710568D01*
X55839139Y-31580047D01*
X56000047Y-31419139D01*
X56130568Y-31232734D01*
X56226739Y-31026496D01*
X56285635Y-30806692D01*
X56305468Y-30580000D01*
X56305468Y-30579994D01*
X56285636Y-30353320D01*
X56285635Y-30353308D01*
X56226739Y-30133504D01*
X56130568Y-29927266D01*
X56130565Y-29927262D01*
X56130563Y-29927258D01*
X56000050Y-29740865D01*
X56000049Y-29740864D01*
X56000047Y-29740861D01*
X55839139Y-29579953D01*
X55839135Y-29579950D01*
X55839134Y-29579949D01*
X55652741Y-29449436D01*
X55652727Y-29449428D01*
X55446499Y-29353262D01*
X55446496Y-29353261D01*
X55226694Y-29294365D01*
X55226679Y-29294363D01*
X55000006Y-29274532D01*
X54999994Y-29274532D01*
X54773320Y-29294363D01*
X54773305Y-29294365D01*
X54553503Y-29353261D01*
X54553500Y-29353262D01*
X54347272Y-29449428D01*
X54347258Y-29449436D01*
X54160865Y-29579949D01*
X53999949Y-29740865D01*
X53869436Y-29927258D01*
X53869428Y-29927272D01*
X53773262Y-30133500D01*
X53773261Y-30133503D01*
X53714365Y-30353305D01*
X53714363Y-30353320D01*
X53694532Y-30579994D01*
X52805468Y-30579994D01*
X52785636Y-30353320D01*
X52785635Y-30353308D01*
X52726739Y-30133504D01*
X52630568Y-29927266D01*
X52630565Y-29927262D01*
X52630563Y-29927258D01*
X52500050Y-29740865D01*
X52500049Y-29740864D01*
X52500047Y-29740861D01*
X52339139Y-29579953D01*
X52339135Y-29579950D01*
X52339134Y-29579949D01*
X52152741Y-29449436D01*
X52152727Y-29449428D01*
X51946499Y-29353262D01*
X51946496Y-29353261D01*
X51726694Y-29294365D01*
X51726679Y-29294363D01*
X51500006Y-29274532D01*
X51499994Y-29274532D01*
X51273320Y-29294363D01*
X51273305Y-29294365D01*
X51053503Y-29353261D01*
X51053500Y-29353262D01*
X50847272Y-29449428D01*
X50847258Y-29449436D01*
X50660865Y-29579949D01*
X50499949Y-29740865D01*
X50369436Y-29927258D01*
X50369428Y-29927272D01*
X50273262Y-30133500D01*
X50273261Y-30133503D01*
X50214365Y-30353305D01*
X50214363Y-30353320D01*
X50194532Y-30579994D01*
X12500500Y-30579994D01*
X12500500Y-25580000D01*
X22995057Y-25580000D01*
X23014809Y-25893955D01*
X23073755Y-26202958D01*
X23170961Y-26502127D01*
X23304902Y-26786766D01*
X23304904Y-26786769D01*
X23473457Y-27052366D01*
X23564285Y-27162157D01*
X24637424Y-26089018D01*
X24723249Y-26217463D01*
X24862537Y-26356751D01*
X24990978Y-26442573D01*
X23914972Y-27518579D01*
X24157783Y-27694993D01*
X24433449Y-27846540D01*
X24725937Y-27962344D01*
X25030615Y-28040572D01*
X25030620Y-28040573D01*
X25342718Y-28080000D01*
X25657282Y-28080000D01*
X25969379Y-28040573D01*
X25969384Y-28040572D01*
X26274062Y-27962344D01*
X26566553Y-27846539D01*
X26842212Y-27694994D01*
X26842214Y-27694993D01*
X27085025Y-27518579D01*
X26009019Y-26442574D01*
X26137463Y-26356751D01*
X26276751Y-26217463D01*
X26362574Y-26089019D01*
X27435713Y-27162158D01*
X27526539Y-27052371D01*
X27695095Y-26786769D01*
X27695097Y-26786766D01*
X27829038Y-26502127D01*
X27926244Y-26202958D01*
X27985190Y-25893955D01*
X28004942Y-25580000D01*
X27985190Y-25266044D01*
X27949700Y-25080000D01*
X38194451Y-25080000D01*
X38214616Y-25349100D01*
X38274663Y-25612187D01*
X38274667Y-25612198D01*
X38373256Y-25863395D01*
X38373257Y-25863398D01*
X38508188Y-26097107D01*
X38676437Y-26308083D01*
X38676439Y-26308085D01*
X38874259Y-26491635D01*
X39097226Y-26643651D01*
X39340359Y-26760738D01*
X39598228Y-26840280D01*
X39865071Y-26880500D01*
X39865074Y-26880500D01*
X40134926Y-26880500D01*
X40134929Y-26880500D01*
X40401772Y-26840280D01*
X40659641Y-26760738D01*
X40902775Y-26643651D01*
X41125741Y-26491635D01*
X41323561Y-26308085D01*
X41491815Y-26097102D01*
X41626743Y-25863398D01*
X41725334Y-25612195D01*
X41785383Y-25349103D01*
X41805549Y-25080000D01*
X43194451Y-25080000D01*
X43214616Y-25349100D01*
X43274663Y-25612187D01*
X43274667Y-25612198D01*
X43373256Y-25863395D01*
X43373257Y-25863398D01*
X43508188Y-26097107D01*
X43676437Y-26308083D01*
X43676439Y-26308085D01*
X43874259Y-26491635D01*
X44097226Y-26643651D01*
X44340359Y-26760738D01*
X44598228Y-26840280D01*
X44865071Y-26880500D01*
X44865074Y-26880500D01*
X45134926Y-26880500D01*
X45134929Y-26880500D01*
X45401772Y-26840280D01*
X45659641Y-26760738D01*
X45902775Y-26643651D01*
X46125741Y-26491635D01*
X46323561Y-26308085D01*
X46491815Y-26097102D01*
X46626743Y-25863398D01*
X46725334Y-25612195D01*
X46785383Y-25349103D01*
X46805549Y-25080000D01*
X46785383Y-24810897D01*
X46750456Y-24657872D01*
X46725336Y-24547812D01*
X46725334Y-24547809D01*
X46725334Y-24547805D01*
X46626743Y-24296602D01*
X46491815Y-24062898D01*
X46491813Y-24062895D01*
X46491811Y-24062892D01*
X46323562Y-23851916D01*
X46125738Y-23668362D01*
X45902778Y-23516350D01*
X45902773Y-23516348D01*
X45659649Y-23399265D01*
X45659644Y-23399263D01*
X45659641Y-23399262D01*
X45401772Y-23319720D01*
X45134929Y-23279500D01*
X44865071Y-23279500D01*
X44664938Y-23309665D01*
X44598227Y-23319720D01*
X44340353Y-23399264D01*
X44097227Y-23516348D01*
X43874257Y-23668366D01*
X43676437Y-23851916D01*
X43508189Y-24062892D01*
X43508188Y-24062892D01*
X43373257Y-24296601D01*
X43373256Y-24296604D01*
X43274667Y-24547801D01*
X43274663Y-24547812D01*
X43214616Y-24810899D01*
X43194451Y-25080000D01*
X41805549Y-25080000D01*
X41785383Y-24810897D01*
X41750456Y-24657872D01*
X41725336Y-24547812D01*
X41725334Y-24547809D01*
X41725334Y-24547805D01*
X41626743Y-24296602D01*
X41491815Y-24062898D01*
X41491813Y-24062895D01*
X41491811Y-24062892D01*
X41323562Y-23851916D01*
X41125738Y-23668362D01*
X40902778Y-23516350D01*
X40902773Y-23516348D01*
X40659649Y-23399265D01*
X40659644Y-23399263D01*
X40659641Y-23399262D01*
X40401772Y-23319720D01*
X40134929Y-23279500D01*
X39865071Y-23279500D01*
X39664938Y-23309665D01*
X39598227Y-23319720D01*
X39340353Y-23399264D01*
X39097227Y-23516348D01*
X38874257Y-23668366D01*
X38676437Y-23851916D01*
X38508189Y-24062892D01*
X38508188Y-24062892D01*
X38373257Y-24296601D01*
X38373256Y-24296604D01*
X38274667Y-24547801D01*
X38274663Y-24547812D01*
X38214616Y-24810899D01*
X38194451Y-25080000D01*
X27949700Y-25080000D01*
X27926244Y-24957041D01*
X27829038Y-24657872D01*
X27695097Y-24373233D01*
X27695095Y-24373230D01*
X27526542Y-24107633D01*
X27435712Y-23997840D01*
X26362573Y-25070979D01*
X26276751Y-24942537D01*
X26137463Y-24803249D01*
X26009018Y-24717424D01*
X27085025Y-23641418D01*
X26842216Y-23465006D01*
X26566550Y-23313459D01*
X26274062Y-23197655D01*
X25969384Y-23119427D01*
X25969379Y-23119426D01*
X25657282Y-23080000D01*
X25342718Y-23080000D01*
X25030620Y-23119426D01*
X25030615Y-23119427D01*
X24725937Y-23197655D01*
X24433449Y-23313459D01*
X24157782Y-23465007D01*
X24157777Y-23465010D01*
X23914973Y-23641418D01*
X24990980Y-24717425D01*
X24862537Y-24803249D01*
X24723249Y-24942537D01*
X24637425Y-25070980D01*
X23564285Y-23997840D01*
X23473457Y-24107632D01*
X23304904Y-24373230D01*
X23304902Y-24373233D01*
X23170961Y-24657872D01*
X23073755Y-24957041D01*
X23014809Y-25266044D01*
X22995057Y-25580000D01*
X12500500Y-25580000D01*
X12500500Y-22079994D01*
X50194838Y-22079994D01*
X50194838Y-22080005D01*
X50213449Y-22292734D01*
X50213451Y-22292749D01*
X50268724Y-22499030D01*
X50268725Y-22499033D01*
X50358975Y-22692574D01*
X50358983Y-22692588D01*
X50481467Y-22867514D01*
X50481471Y-22867519D01*
X50632481Y-23018529D01*
X50632484Y-23018531D01*
X50632485Y-23018532D01*
X50807411Y-23141016D01*
X50807415Y-23141018D01*
X50807419Y-23141021D01*
X51000970Y-23231276D01*
X51207253Y-23286549D01*
X51225720Y-23288164D01*
X51419994Y-23305162D01*
X51420000Y-23305162D01*
X51420006Y-23305162D01*
X51588615Y-23290410D01*
X51632747Y-23286549D01*
X51839030Y-23231276D01*
X52032581Y-23141021D01*
X52207519Y-23018529D01*
X52358529Y-22867519D01*
X52481021Y-22692581D01*
X52571276Y-22499030D01*
X52626549Y-22292747D01*
X52645162Y-22080000D01*
X52645162Y-22079994D01*
X55274838Y-22079994D01*
X55274838Y-22080005D01*
X55293449Y-22292734D01*
X55293451Y-22292749D01*
X55348724Y-22499030D01*
X55348725Y-22499033D01*
X55438975Y-22692574D01*
X55438983Y-22692588D01*
X55561467Y-22867514D01*
X55561471Y-22867519D01*
X55712481Y-23018529D01*
X55712484Y-23018531D01*
X55712485Y-23018532D01*
X55887411Y-23141016D01*
X55887415Y-23141018D01*
X55887419Y-23141021D01*
X56080970Y-23231276D01*
X56287253Y-23286549D01*
X56305720Y-23288164D01*
X56499994Y-23305162D01*
X56500000Y-23305162D01*
X56500006Y-23305162D01*
X56668615Y-23290410D01*
X56712747Y-23286549D01*
X56919030Y-23231276D01*
X57112581Y-23141021D01*
X57287519Y-23018529D01*
X57438529Y-22867519D01*
X57561021Y-22692581D01*
X57651276Y-22499030D01*
X57706549Y-22292747D01*
X57725162Y-22080000D01*
X57725162Y-22079994D01*
X57706550Y-21867265D01*
X57706549Y-21867253D01*
X57651276Y-21660970D01*
X57561021Y-21467419D01*
X57561018Y-21467415D01*
X57561016Y-21467411D01*
X57438532Y-21292485D01*
X57438531Y-21292484D01*
X57438529Y-21292481D01*
X57287519Y-21141471D01*
X57287515Y-21141468D01*
X57287514Y-21141467D01*
X57112588Y-21018983D01*
X57112574Y-21018975D01*
X56919033Y-20928725D01*
X56919030Y-20928724D01*
X56712749Y-20873451D01*
X56712734Y-20873449D01*
X56500006Y-20854838D01*
X56499994Y-20854838D01*
X56287265Y-20873449D01*
X56287250Y-20873451D01*
X56080969Y-20928724D01*
X56080966Y-20928725D01*
X55887425Y-21018975D01*
X55887411Y-21018983D01*
X55712485Y-21141467D01*
X55561467Y-21292485D01*
X55438983Y-21467411D01*
X55438975Y-21467425D01*
X55348725Y-21660966D01*
X55348724Y-21660969D01*
X55293451Y-21867250D01*
X55293449Y-21867265D01*
X55274838Y-22079994D01*
X52645162Y-22079994D01*
X52626550Y-21867265D01*
X52626549Y-21867253D01*
X52571276Y-21660970D01*
X52481021Y-21467419D01*
X52481018Y-21467415D01*
X52481016Y-21467411D01*
X52358532Y-21292485D01*
X52358531Y-21292484D01*
X52358529Y-21292481D01*
X52207519Y-21141471D01*
X52207515Y-21141468D01*
X52207514Y-21141467D01*
X52032588Y-21018983D01*
X52032574Y-21018975D01*
X51839033Y-20928725D01*
X51839030Y-20928724D01*
X51632749Y-20873451D01*
X51632734Y-20873449D01*
X51420006Y-20854838D01*
X51419994Y-20854838D01*
X51207265Y-20873449D01*
X51207250Y-20873451D01*
X51000969Y-20928724D01*
X51000966Y-20928725D01*
X50807425Y-21018975D01*
X50807411Y-21018983D01*
X50632485Y-21141467D01*
X50481467Y-21292485D01*
X50358983Y-21467411D01*
X50358975Y-21467425D01*
X50268725Y-21660966D01*
X50268724Y-21660969D01*
X50213451Y-21867250D01*
X50213449Y-21867265D01*
X50194838Y-22079994D01*
X12500500Y-22079994D01*
X12500500Y-18246261D01*
X12519454Y-18150973D01*
X12573430Y-18070191D01*
X12654212Y-18016215D01*
X12749500Y-17997261D01*
X12844788Y-18016215D01*
X12925570Y-18070191D01*
X12958329Y-18110647D01*
X13002121Y-18178081D01*
X13246213Y-18479509D01*
X13246219Y-18479516D01*
X13520484Y-18753781D01*
X13520489Y-18753785D01*
X13520490Y-18753786D01*
X13821914Y-18997875D01*
X13821916Y-18997876D01*
X14147211Y-19209125D01*
X14492806Y-19385214D01*
X14854913Y-19524214D01*
X15229567Y-19624602D01*
X15612662Y-19685278D01*
X16000000Y-19705578D01*
X16387338Y-19685278D01*
X16770433Y-19624602D01*
X17086173Y-19540000D01*
X52735340Y-19540000D01*
X52753945Y-19752657D01*
X52753945Y-19752658D01*
X52809195Y-19958856D01*
X52899413Y-20152329D01*
X52938415Y-20208029D01*
X53560000Y-19586444D01*
X53560000Y-19592661D01*
X53587259Y-19694394D01*
X53639920Y-19785606D01*
X53714394Y-19860080D01*
X53805606Y-19912741D01*
X53907339Y-19940000D01*
X53913552Y-19940000D01*
X53291968Y-20561583D01*
X53291968Y-20561585D01*
X53347661Y-20600581D01*
X53347671Y-20600587D01*
X53541140Y-20690803D01*
X53747341Y-20746054D01*
X53960000Y-20764659D01*
X54172657Y-20746054D01*
X54172658Y-20746054D01*
X54378859Y-20690803D01*
X54572329Y-20600587D01*
X54628030Y-20561584D01*
X54006446Y-19940000D01*
X54012661Y-19940000D01*
X54114394Y-19912741D01*
X54205606Y-19860080D01*
X54280080Y-19785606D01*
X54332741Y-19694394D01*
X54360000Y-19592661D01*
X54360000Y-19586446D01*
X54981584Y-20208030D01*
X55020587Y-20152329D01*
X55110803Y-19958859D01*
X55166054Y-19752658D01*
X55166054Y-19752657D01*
X55184659Y-19540000D01*
X55166054Y-19327342D01*
X55166054Y-19327341D01*
X55110803Y-19121140D01*
X55020587Y-18927671D01*
X55020581Y-18927661D01*
X54981585Y-18871968D01*
X54981583Y-18871968D01*
X54360000Y-19493551D01*
X54360000Y-19487339D01*
X54332741Y-19385606D01*
X54280080Y-19294394D01*
X54205606Y-19219920D01*
X54114394Y-19167259D01*
X54012661Y-19140000D01*
X54006444Y-19140000D01*
X54628029Y-18518415D01*
X54572329Y-18479413D01*
X54378856Y-18389195D01*
X54172658Y-18333945D01*
X53960000Y-18315340D01*
X53747342Y-18333945D01*
X53747341Y-18333945D01*
X53541140Y-18389196D01*
X53347673Y-18479410D01*
X53347672Y-18479411D01*
X53291967Y-18518415D01*
X53913554Y-19140000D01*
X53907339Y-19140000D01*
X53805606Y-19167259D01*
X53714394Y-19219920D01*
X53639920Y-19294394D01*
X53587259Y-19385606D01*
X53560000Y-19487339D01*
X53560000Y-19493552D01*
X52938415Y-18871967D01*
X52899411Y-18927672D01*
X52899410Y-18927673D01*
X52809196Y-19121140D01*
X52753945Y-19327341D01*
X52753945Y-19327342D01*
X52735340Y-19540000D01*
X17086173Y-19540000D01*
X17145087Y-19524214D01*
X17507194Y-19385214D01*
X17852789Y-19209125D01*
X18178084Y-18997876D01*
X18479516Y-18753781D01*
X18753781Y-18479516D01*
X18997876Y-18178084D01*
X19209125Y-17852789D01*
X19385214Y-17507194D01*
X19524214Y-17145087D01*
X19624602Y-16770433D01*
X19685278Y-16387338D01*
X19705578Y-16000000D01*
X19685278Y-15612662D01*
X19624602Y-15229567D01*
X19524214Y-14854913D01*
X19385214Y-14492806D01*
X19252390Y-14232123D01*
X36579500Y-14232123D01*
X36579500Y-15927865D01*
X36579500Y-15927868D01*
X36579501Y-15927872D01*
X36581567Y-15947093D01*
X36585908Y-15987480D01*
X36585909Y-15987484D01*
X36620433Y-16080047D01*
X36636204Y-16122331D01*
X36722454Y-16237546D01*
X36837669Y-16323796D01*
X36972517Y-16374091D01*
X37032127Y-16380500D01*
X38727872Y-16380499D01*
X38787483Y-16374091D01*
X38922331Y-16323796D01*
X39037546Y-16237546D01*
X39123796Y-16122331D01*
X39174091Y-15987483D01*
X39180500Y-15927873D01*
X39180499Y-15079994D01*
X44194532Y-15079994D01*
X44194532Y-15080005D01*
X44214363Y-15306679D01*
X44214365Y-15306694D01*
X44273261Y-15526496D01*
X44273262Y-15526499D01*
X44369428Y-15732727D01*
X44369436Y-15732741D01*
X44499949Y-15919134D01*
X44499953Y-15919139D01*
X44660861Y-16080047D01*
X44660864Y-16080049D01*
X44660865Y-16080050D01*
X44847258Y-16210563D01*
X44847262Y-16210565D01*
X44847266Y-16210568D01*
X45053504Y-16306739D01*
X45273308Y-16365635D01*
X45292984Y-16367356D01*
X45499994Y-16385468D01*
X45500000Y-16385468D01*
X45500006Y-16385468D01*
X45679668Y-16369749D01*
X45726692Y-16365635D01*
X45946496Y-16306739D01*
X46152734Y-16210568D01*
X46339139Y-16080047D01*
X46500047Y-15919139D01*
X46630568Y-15732734D01*
X46726739Y-15526496D01*
X46785635Y-15306692D01*
X46805468Y-15080000D01*
X46805468Y-15079994D01*
X46785636Y-14853320D01*
X46785635Y-14853308D01*
X46726739Y-14633504D01*
X46630568Y-14427266D01*
X46630565Y-14427262D01*
X46630563Y-14427258D01*
X46500050Y-14240865D01*
X46500049Y-14240864D01*
X46500047Y-14240861D01*
X46339139Y-14079953D01*
X46339135Y-14079950D01*
X46339134Y-14079949D01*
X46152741Y-13949436D01*
X46152727Y-13949428D01*
X45946499Y-13853262D01*
X45946496Y-13853261D01*
X45726694Y-13794365D01*
X45726679Y-13794363D01*
X45500006Y-13774532D01*
X45499994Y-13774532D01*
X45273320Y-13794363D01*
X45273305Y-13794365D01*
X45053503Y-13853261D01*
X45053500Y-13853262D01*
X44847272Y-13949428D01*
X44847258Y-13949436D01*
X44660865Y-14079949D01*
X44499949Y-14240865D01*
X44369436Y-14427258D01*
X44369428Y-14427272D01*
X44273262Y-14633500D01*
X44273261Y-14633503D01*
X44214365Y-14853305D01*
X44214363Y-14853320D01*
X44194532Y-15079994D01*
X39180499Y-15079994D01*
X39180499Y-14232128D01*
X39174091Y-14172517D01*
X39123796Y-14037669D01*
X39037546Y-13922454D01*
X38922331Y-13836204D01*
X38810155Y-13794365D01*
X38787481Y-13785908D01*
X38727873Y-13779500D01*
X37032134Y-13779500D01*
X37032130Y-13779500D01*
X37032128Y-13779501D01*
X37019314Y-13780878D01*
X36972519Y-13785908D01*
X36972515Y-13785909D01*
X36837670Y-13836203D01*
X36722455Y-13922453D01*
X36722453Y-13922455D01*
X36636204Y-14037669D01*
X36585908Y-14172518D01*
X36579500Y-14232123D01*
X19252390Y-14232123D01*
X19209125Y-14147211D01*
X19063166Y-13922454D01*
X18997875Y-13821914D01*
X18753786Y-13520490D01*
X18753785Y-13520489D01*
X18753781Y-13520484D01*
X18479516Y-13246219D01*
X18461561Y-13231679D01*
X18178081Y-13002121D01*
X18110647Y-12958329D01*
X18041054Y-12890536D01*
X18002702Y-12801271D01*
X18001430Y-12704124D01*
X18037432Y-12613886D01*
X18105225Y-12544293D01*
X18194490Y-12505941D01*
X18246261Y-12500500D01*
X75753739Y-12500500D01*
X75849027Y-12519454D01*
G37*
G04 #@! TD.AperFunction*
G04 #@! TD*
M02*
