M48
INCH,TZ
T1C0.0295
T2C0.0315
T3C0.0433
T4C0.0512
T5C0.0520
T6C0.0787
T7C0.1260
%
G90
G05
T1
X13921Y-23154
X13921Y-23654
X13921Y-24154
T2
X7795Y-17717
X7795Y-21717
X9390Y-17717
X9390Y-21717
X10984Y-17717
X10984Y-21717
X12579Y-17717
X12579Y-21717
X14173Y-17717
X14173Y-21717
X14913Y-5937
X15748Y-14795
X15748Y-17748
X15748Y-20748
X15823Y-22988
X16748Y-17748
X16748Y-20748
X17717Y-14795
X17748Y-17748
X17748Y-20748
X17913Y-5937
X18748Y-17748
X18748Y-20748
X18823Y-22988
X20244Y-8693
X20276Y-12039
X20276Y-16039
X20472Y-17846
X20472Y-18831
X20472Y-19913
X20472Y-20898
X20472Y-22016
X20472Y-26016
X21244Y-7693
X21654Y-12039
X21654Y-16039
X22244Y-8693
T3
X16323Y-26191
X17323Y-26191
X18323Y-26191
T4
X15748Y-9874
X17717Y-9874
T5
X29724Y-13780
X29724Y-15748
X29724Y-19187
X29724Y-21156
T6
X10039Y-10071
X10039Y-14008
T7
X6299Y-6299
X6299Y-26772
X30709Y-6299
X30709Y-26772
M30
