G04 #@! TF.GenerationSoftware,KiCad,Pcbnew,8.0.7-8.0.7-0~ubuntu22.04.1*
G04 #@! TF.CreationDate,2024-12-26T22:32:44+01:00*
G04 #@! TF.ProjectId,nixie,6e697869-652e-46b6-9963-61645f706362,rev?*
G04 #@! TF.SameCoordinates,Original*
G04 #@! TF.FileFunction,Copper,L1,Top*
G04 #@! TF.FilePolarity,Positive*
%FSLAX46Y46*%
G04 Gerber Fmt 4.6, Leading zero omitted, Abs format (unit mm)*
G04 Created by KiCad (PCBNEW 8.0.7-8.0.7-0~ubuntu22.04.1) date 2024-12-26 22:32:44*
%MOMM*%
%LPD*%
G01*
G04 APERTURE LIST*
G04 #@! TA.AperFunction,ComponentPad*
%ADD10C,1.600000*%
G04 #@! TD*
G04 #@! TA.AperFunction,ComponentPad*
%ADD11O,1.600000X1.600000*%
G04 #@! TD*
G04 #@! TA.AperFunction,ComponentPad*
%ADD12R,1.600000X1.600000*%
G04 #@! TD*
G04 #@! TA.AperFunction,ComponentPad*
%ADD13R,4.000000X4.000000*%
G04 #@! TD*
G04 #@! TA.AperFunction,ComponentPad*
%ADD14C,4.000000*%
G04 #@! TD*
G04 #@! TA.AperFunction,ComponentPad*
%ADD15R,1.905000X2.000000*%
G04 #@! TD*
G04 #@! TA.AperFunction,ComponentPad*
%ADD16O,1.905000X2.000000*%
G04 #@! TD*
G04 #@! TA.AperFunction,ComponentPad*
%ADD17C,6.400000*%
G04 #@! TD*
G04 #@! TA.AperFunction,ComponentPad*
%ADD18C,1.440000*%
G04 #@! TD*
G04 #@! TA.AperFunction,ComponentPad*
%ADD19C,2.600000*%
G04 #@! TD*
G04 #@! TA.AperFunction,ComponentPad*
%ADD20O,3.960000X1.980000*%
G04 #@! TD*
G04 #@! TA.AperFunction,ComponentPad*
%ADD21R,3.960000X1.980000*%
G04 #@! TD*
G04 #@! TA.AperFunction,ComponentPad*
%ADD22R,1.500000X1.050000*%
G04 #@! TD*
G04 #@! TA.AperFunction,ComponentPad*
%ADD23O,1.500000X1.050000*%
G04 #@! TD*
G04 #@! TA.AperFunction,Conductor*
%ADD24C,1.000000*%
G04 #@! TD*
G04 APERTURE END LIST*
D10*
G04 #@! TO.P,Rs5,1*
G04 #@! TO.N,VDD*
X36000000Y-55160000D03*
D11*
G04 #@! TO.P,Rs5,2*
G04 #@! TO.N,/Power/blob*
X36000000Y-45000000D03*
G04 #@! TD*
D12*
G04 #@! TO.P,C8,1*
G04 #@! TO.N,/Power/blob*
X40000000Y-37580000D03*
D10*
G04 #@! TO.P,C8,2*
G04 #@! TO.N,GND*
X45000000Y-37580000D03*
G04 #@! TD*
D13*
G04 #@! TO.P,C9,1*
G04 #@! TO.N,VDDA*
X25500000Y-35580000D03*
D14*
G04 #@! TO.P,C9,2*
G04 #@! TO.N,GND*
X25500000Y-25580000D03*
G04 #@! TD*
D15*
G04 #@! TO.P,Q2,1,G*
G04 #@! TO.N,Net-(D1-K)*
X41460000Y-66525000D03*
D16*
G04 #@! TO.P,Q2,2,D*
G04 #@! TO.N,Net-(D2-A)*
X44000000Y-66525000D03*
G04 #@! TO.P,Q2,3,S*
G04 #@! TO.N,GND*
X46540000Y-66525000D03*
G04 #@! TD*
D17*
G04 #@! TO.P,H3,1,1*
G04 #@! TO.N,unconnected-(H3-Pad1)*
X78000000Y-68000000D03*
G04 #@! TD*
D18*
G04 #@! TO.P,RV1,1,1*
G04 #@! TO.N,Net-(R5-Pad2)*
X56500000Y-22080000D03*
G04 #@! TO.P,RV1,2,2*
G04 #@! TO.N,GND*
X53960000Y-19540000D03*
G04 #@! TO.P,RV1,3,3*
G04 #@! TO.N,unconnected-(RV1-Pad3)*
X51420000Y-22080000D03*
G04 #@! TD*
D10*
G04 #@! TO.P,R5,1*
G04 #@! TO.N,Net-(U5-Vfb)*
X55000000Y-40740000D03*
D11*
G04 #@! TO.P,R5,2*
G04 #@! TO.N,Net-(R5-Pad2)*
X55000000Y-30580000D03*
G04 #@! TD*
D17*
G04 #@! TO.P,H1,1,1*
G04 #@! TO.N,unconnected-(H1-Pad1)*
X16000000Y-16000000D03*
G04 #@! TD*
D19*
G04 #@! TO.P,L1,1,1*
G04 #@! TO.N,/Power/blob*
X40000000Y-25080000D03*
G04 #@! TO.P,L1,2,2*
G04 #@! TO.N,Net-(D2-A)*
X45000000Y-25080000D03*
G04 #@! TD*
D10*
G04 #@! TO.P,Rs3,1*
G04 #@! TO.N,VDD*
X27900000Y-55160000D03*
D11*
G04 #@! TO.P,Rs3,2*
G04 #@! TO.N,/Power/blob*
X27900000Y-45000000D03*
G04 #@! TD*
D10*
G04 #@! TO.P,C6,1*
G04 #@! TO.N,Net-(U5-TC)*
X52000000Y-50580000D03*
G04 #@! TO.P,C6,2*
G04 #@! TO.N,GND*
X52000000Y-53080000D03*
G04 #@! TD*
D17*
G04 #@! TO.P,H2,1,1*
G04 #@! TO.N,unconnected-(H2-Pad1)*
X78000000Y-16000000D03*
G04 #@! TD*
D10*
G04 #@! TO.P,C7,1*
G04 #@! TO.N,Net-(U5-Vfb)*
X52000000Y-45330000D03*
G04 #@! TO.P,C7,2*
G04 #@! TO.N,GND*
X52000000Y-47830000D03*
G04 #@! TD*
D17*
G04 #@! TO.P,H4,1,1*
G04 #@! TO.N,unconnected-(H4-Pad1)*
X16000000Y-68000000D03*
G04 #@! TD*
D20*
G04 #@! TO.P,J4,2,Pin_2*
G04 #@! TO.N,GND*
X75500000Y-35000000D03*
D21*
G04 #@! TO.P,J4,1,Pin_1*
G04 #@! TO.N,VDD*
X75500000Y-40000000D03*
G04 #@! TD*
D10*
G04 #@! TO.P,Rs1,1*
G04 #@! TO.N,VDD*
X19800000Y-55160000D03*
D11*
G04 #@! TO.P,Rs1,2*
G04 #@! TO.N,/Power/blob*
X19800000Y-45000000D03*
G04 #@! TD*
D12*
G04 #@! TO.P,D2,1,K*
G04 #@! TO.N,VDDA*
X37880000Y-15080000D03*
D11*
G04 #@! TO.P,D2,2,A*
G04 #@! TO.N,Net-(D2-A)*
X45500000Y-15080000D03*
G04 #@! TD*
D12*
G04 #@! TO.P,D1,1,K*
G04 #@! TO.N,Net-(D1-K)*
X47810000Y-58390000D03*
D11*
G04 #@! TO.P,D1,2,A*
G04 #@! TO.N,Net-(D1-A)*
X40190000Y-58390000D03*
G04 #@! TD*
D10*
G04 #@! TO.P,Rs2,1*
G04 #@! TO.N,VDD*
X23850000Y-55160000D03*
D11*
G04 #@! TO.P,Rs2,2*
G04 #@! TO.N,/Power/blob*
X23850000Y-45000000D03*
G04 #@! TD*
D22*
G04 #@! TO.P,Q1,1,E*
G04 #@! TO.N,GND*
X35360000Y-61350000D03*
D23*
G04 #@! TO.P,Q1,2,B*
G04 #@! TO.N,Net-(D1-A)*
X35360000Y-60080000D03*
G04 #@! TO.P,Q1,3,C*
G04 #@! TO.N,Net-(D1-K)*
X35360000Y-58810000D03*
G04 #@! TD*
D12*
G04 #@! TO.P,U5,1,SwC*
G04 #@! TO.N,/Power/blob*
X40000000Y-52700000D03*
D11*
G04 #@! TO.P,U5,2,SwE*
G04 #@! TO.N,Net-(D1-A)*
X42540000Y-52700000D03*
G04 #@! TO.P,U5,3,TC*
G04 #@! TO.N,Net-(U5-TC)*
X45080000Y-52700000D03*
G04 #@! TO.P,U5,4,GND*
G04 #@! TO.N,GND*
X47620000Y-52700000D03*
G04 #@! TO.P,U5,5,Vfb*
G04 #@! TO.N,Net-(U5-Vfb)*
X47620000Y-45080000D03*
G04 #@! TO.P,U5,6,Vin*
G04 #@! TO.N,VDD*
X45080000Y-45080000D03*
G04 #@! TO.P,U5,7,Ipk*
G04 #@! TO.N,/Power/blob*
X42540000Y-45080000D03*
G04 #@! TO.P,U5,8,DC*
X40000000Y-45080000D03*
G04 #@! TD*
D10*
G04 #@! TO.P,Rs4,1*
G04 #@! TO.N,VDD*
X31950000Y-55160000D03*
D11*
G04 #@! TO.P,Rs4,2*
G04 #@! TO.N,/Power/blob*
X31950000Y-45000000D03*
G04 #@! TD*
D10*
G04 #@! TO.P,R4,1*
G04 #@! TO.N,VDDA*
X51500000Y-30580000D03*
D11*
G04 #@! TO.P,R4,2*
G04 #@! TO.N,Net-(U5-Vfb)*
X51500000Y-40740000D03*
G04 #@! TD*
D10*
G04 #@! TO.P,R3,1*
G04 #@! TO.N,Net-(D1-A)*
X52000000Y-55920000D03*
D11*
G04 #@! TO.P,R3,2*
G04 #@! TO.N,GND*
X52000000Y-66080000D03*
G04 #@! TD*
D20*
G04 #@! TO.P,J3,2,Pin_2*
G04 #@! TO.N,GND*
X75500000Y-48735000D03*
D21*
G04 #@! TO.P,J3,1,Pin_1*
G04 #@! TO.N,VDDA*
X75500000Y-53735000D03*
G04 #@! TD*
D24*
G04 #@! TO.N,VDD*
X57000000Y-69000000D02*
X68000000Y-58000000D01*
X68000000Y-58000000D02*
X68000000Y-45530000D01*
X68000000Y-45530000D02*
X73530000Y-40000000D01*
X73530000Y-40000000D02*
X75500000Y-40000000D01*
X19800000Y-55160000D02*
X18500000Y-56460000D01*
X18500000Y-56460000D02*
X18500000Y-59000000D01*
X18500000Y-59000000D02*
X28500000Y-69000000D01*
X28500000Y-69000000D02*
X57000000Y-69000000D01*
G04 #@! TO.N,VDDA*
X25500000Y-35580000D02*
X15500000Y-45580000D01*
X15500000Y-45580000D02*
X15500000Y-58500000D01*
X15500000Y-58500000D02*
X27500000Y-70500000D01*
X27500000Y-70500000D02*
X58950265Y-70500000D01*
X58950265Y-70500000D02*
X75500000Y-53950265D01*
X75500000Y-53950265D02*
X75500000Y-53735000D01*
X31000000Y-30080000D02*
X25500000Y-35580000D01*
X31000000Y-18000000D02*
X31000000Y-30080000D01*
X33920000Y-15080000D02*
X31000000Y-18000000D01*
X47671572Y-30580000D02*
X42500000Y-25408428D01*
X51500000Y-30580000D02*
X47671572Y-30580000D01*
X42500000Y-19700000D02*
X37880000Y-15080000D01*
X42500000Y-25408428D02*
X42500000Y-19700000D01*
X37880000Y-15080000D02*
X33920000Y-15080000D01*
G04 #@! TO.N,Net-(D1-A)*
X38500000Y-60080000D02*
X35360000Y-60080000D01*
X40190000Y-58390000D02*
X38500000Y-60080000D01*
G04 #@! TO.N,Net-(D2-A)*
X58500000Y-52025000D02*
X44000000Y-66525000D01*
X58500000Y-22071816D02*
X58500000Y-52025000D01*
X45500000Y-24580000D02*
X45000000Y-25080000D01*
X45500000Y-15080000D02*
X51508184Y-15080000D01*
X51508184Y-15080000D02*
X58500000Y-22071816D01*
X45500000Y-15080000D02*
X45500000Y-24580000D01*
G04 #@! TO.N,/Power/blob*
X36080000Y-45080000D02*
X36000000Y-45000000D01*
G04 #@! TO.N,Net-(U5-Vfb)*
X51660000Y-40740000D02*
X51500000Y-40580000D01*
X52000000Y-45330000D02*
X47870000Y-45330000D01*
X51500000Y-44830000D02*
X52000000Y-45330000D01*
X47870000Y-45330000D02*
X47620000Y-45080000D01*
X55000000Y-40740000D02*
X51660000Y-40740000D01*
X51500000Y-40580000D02*
X51500000Y-44830000D01*
G04 #@! TO.N,VDD*
X36000000Y-55160000D02*
X19800000Y-55160000D01*
X49120000Y-49120000D02*
X49120000Y-53960000D01*
X49120000Y-53960000D02*
X47920000Y-55160000D01*
X47920000Y-55160000D02*
X36000000Y-55160000D01*
X45080000Y-45080000D02*
X49120000Y-49120000D01*
G04 #@! TO.N,Net-(R5-Pad2)*
X56500000Y-29080000D02*
X55000000Y-30580000D01*
X56500000Y-22080000D02*
X56500000Y-29080000D01*
G04 #@! TD*
G04 #@! TA.AperFunction,Conductor*
G04 #@! TO.N,/Power/blob*
G36*
X38592290Y-23514977D02*
G01*
X38667586Y-23500000D01*
X38670414Y-23500000D01*
X38765702Y-23518954D01*
X38846484Y-23572930D01*
X39752512Y-24478958D01*
X39692110Y-24503978D01*
X39585649Y-24575112D01*
X39495112Y-24665649D01*
X39423978Y-24772110D01*
X39398958Y-24832512D01*
X38562294Y-23995848D01*
X38508600Y-24063180D01*
X38373713Y-24296810D01*
X38373705Y-24296826D01*
X38275144Y-24547958D01*
X38215115Y-24810968D01*
X38194953Y-25080000D01*
X38215115Y-25349031D01*
X38275144Y-25612041D01*
X38373705Y-25863173D01*
X38373713Y-25863189D01*
X38508598Y-26096816D01*
X38508604Y-26096824D01*
X38562294Y-26164150D01*
X39398957Y-25327486D01*
X39423978Y-25387890D01*
X39495112Y-25494351D01*
X39585649Y-25584888D01*
X39692110Y-25656022D01*
X39752510Y-25681041D01*
X38914849Y-26518703D01*
X39097473Y-26643215D01*
X39097478Y-26643217D01*
X39340535Y-26760268D01*
X39340540Y-26760270D01*
X39598333Y-26839789D01*
X39865112Y-26880000D01*
X40134888Y-26880000D01*
X40401666Y-26839789D01*
X40659459Y-26760270D01*
X40659465Y-26760268D01*
X40902519Y-26643219D01*
X41085149Y-26518703D01*
X40247487Y-25681041D01*
X40307890Y-25656022D01*
X40414351Y-25584888D01*
X40504888Y-25494351D01*
X40576022Y-25387890D01*
X40601041Y-25327487D01*
X41437704Y-26164150D01*
X41442820Y-26157735D01*
X41517050Y-26095053D01*
X41609617Y-26065550D01*
X41706428Y-26073716D01*
X41792745Y-26118308D01*
X41813556Y-26136905D01*
X41862218Y-26185567D01*
X41862220Y-26185568D01*
X43427070Y-27750418D01*
X43481046Y-27831200D01*
X43500000Y-27926488D01*
X43500000Y-43702411D01*
X43481046Y-43797699D01*
X43427070Y-43878481D01*
X43346288Y-43932457D01*
X43251000Y-43951411D01*
X43155712Y-43932457D01*
X43145769Y-43928082D01*
X42986323Y-43853732D01*
X42986318Y-43853730D01*
X42790000Y-43801126D01*
X42790000Y-44764314D01*
X42785606Y-44759920D01*
X42694394Y-44707259D01*
X42592661Y-44680000D01*
X42487339Y-44680000D01*
X42385606Y-44707259D01*
X42294394Y-44759920D01*
X42290000Y-44764314D01*
X42290000Y-43801127D01*
X42289999Y-43801126D01*
X42093681Y-43853730D01*
X41887516Y-43949866D01*
X41701187Y-44080335D01*
X41540334Y-44241188D01*
X41473968Y-44335969D01*
X41403787Y-44403153D01*
X41313238Y-44438365D01*
X41216106Y-44436246D01*
X41127179Y-44397116D01*
X41066032Y-44335969D01*
X40999665Y-44241188D01*
X40838812Y-44080335D01*
X40652483Y-43949866D01*
X40446318Y-43853730D01*
X40250000Y-43801126D01*
X40250000Y-44764314D01*
X40245606Y-44759920D01*
X40154394Y-44707259D01*
X40052661Y-44680000D01*
X39947339Y-44680000D01*
X39845606Y-44707259D01*
X39754394Y-44759920D01*
X39750000Y-44764314D01*
X39750000Y-43801127D01*
X39749999Y-43801126D01*
X39553681Y-43853730D01*
X39347516Y-43949866D01*
X39161187Y-44080335D01*
X39000335Y-44241187D01*
X38869866Y-44427516D01*
X38773732Y-44633676D01*
X38721128Y-44829999D01*
X38721128Y-44830000D01*
X39684314Y-44830000D01*
X39679920Y-44834394D01*
X39627259Y-44925606D01*
X39600000Y-45027339D01*
X39600000Y-45132661D01*
X39627259Y-45234394D01*
X39679920Y-45325606D01*
X39684314Y-45330000D01*
X38721128Y-45330000D01*
X38773732Y-45526323D01*
X38869866Y-45732483D01*
X39000335Y-45918812D01*
X39161187Y-46079664D01*
X39347516Y-46210133D01*
X39553676Y-46306267D01*
X39749999Y-46358871D01*
X39750000Y-46358871D01*
X39750000Y-45395686D01*
X39754394Y-45400080D01*
X39845606Y-45452741D01*
X39947339Y-45480000D01*
X40052661Y-45480000D01*
X40154394Y-45452741D01*
X40245606Y-45400080D01*
X40250000Y-45395686D01*
X40250000Y-46358871D01*
X40446323Y-46306267D01*
X40652483Y-46210133D01*
X40838812Y-46079664D01*
X40999664Y-45918812D01*
X41066031Y-45824031D01*
X41136212Y-45756847D01*
X41226761Y-45721634D01*
X41323893Y-45723753D01*
X41412820Y-45762882D01*
X41473969Y-45824031D01*
X41540335Y-45918812D01*
X41701187Y-46079664D01*
X41887516Y-46210133D01*
X42093676Y-46306267D01*
X42289999Y-46358871D01*
X42290000Y-46358871D01*
X42290000Y-45395686D01*
X42294394Y-45400080D01*
X42385606Y-45452741D01*
X42487339Y-45480000D01*
X42592661Y-45480000D01*
X42694394Y-45452741D01*
X42785606Y-45400080D01*
X42790000Y-45395686D01*
X42790000Y-46358871D01*
X42986323Y-46306267D01*
X43145768Y-46231917D01*
X43240139Y-46208825D01*
X43336163Y-46223605D01*
X43419222Y-46274006D01*
X43476671Y-46352356D01*
X43499763Y-46446727D01*
X43500000Y-46457588D01*
X43500000Y-51321860D01*
X43481046Y-51417148D01*
X43427070Y-51497930D01*
X43346288Y-51551906D01*
X43251000Y-51570860D01*
X43155712Y-51551906D01*
X43145768Y-51547531D01*
X43039398Y-51497930D01*
X42986496Y-51473261D01*
X42986493Y-51473260D01*
X42766694Y-51414365D01*
X42766679Y-51414363D01*
X42540006Y-51394532D01*
X42539994Y-51394532D01*
X42313320Y-51414363D01*
X42313305Y-51414365D01*
X42093503Y-51473261D01*
X42093500Y-51473262D01*
X41887272Y-51569428D01*
X41887258Y-51569436D01*
X41700861Y-51699952D01*
X41653027Y-51747786D01*
X41572245Y-51801762D01*
X41476957Y-51820715D01*
X41381669Y-51801760D01*
X41300888Y-51747783D01*
X41246912Y-51667001D01*
X41243655Y-51658723D01*
X41243351Y-51657910D01*
X41157189Y-51542812D01*
X41157187Y-51542810D01*
X41042087Y-51456646D01*
X40907378Y-51406403D01*
X40907371Y-51406401D01*
X40847832Y-51400000D01*
X40250001Y-51400000D01*
X40250000Y-51400001D01*
X40250000Y-52384314D01*
X40245606Y-52379920D01*
X40154394Y-52327259D01*
X40052661Y-52300000D01*
X39947339Y-52300000D01*
X39845606Y-52327259D01*
X39754394Y-52379920D01*
X39750000Y-52384314D01*
X39750000Y-51400001D01*
X39749999Y-51400000D01*
X39152167Y-51400000D01*
X39092628Y-51406401D01*
X39092621Y-51406403D01*
X38957912Y-51456646D01*
X38842812Y-51542810D01*
X38842810Y-51542812D01*
X38756646Y-51657912D01*
X38706403Y-51792621D01*
X38706401Y-51792628D01*
X38700000Y-51852167D01*
X38700000Y-52449999D01*
X38700001Y-52450000D01*
X39684314Y-52450000D01*
X39679920Y-52454394D01*
X39627259Y-52545606D01*
X39600000Y-52647339D01*
X39600000Y-52752661D01*
X39627259Y-52854394D01*
X39679920Y-52945606D01*
X39684314Y-52950000D01*
X38700001Y-52950000D01*
X38700000Y-52950001D01*
X38700000Y-53251000D01*
X38681046Y-53346288D01*
X38627070Y-53427070D01*
X38546288Y-53481046D01*
X38451000Y-53500000D01*
X25603140Y-53500000D01*
X25507852Y-53481046D01*
X25427070Y-53427070D01*
X18572930Y-46572930D01*
X18518954Y-46492148D01*
X18500000Y-46396860D01*
X18500000Y-46139617D01*
X18518954Y-46044329D01*
X18572930Y-45963547D01*
X18653712Y-45909571D01*
X18749000Y-45890617D01*
X18844288Y-45909571D01*
X18925070Y-45963547D01*
X18961187Y-45999664D01*
X19147516Y-46130133D01*
X19353676Y-46226267D01*
X19549999Y-46278871D01*
X19550000Y-46278871D01*
X19550000Y-45315686D01*
X19554394Y-45320080D01*
X19645606Y-45372741D01*
X19747339Y-45400000D01*
X19852661Y-45400000D01*
X19954394Y-45372741D01*
X20045606Y-45320080D01*
X20050000Y-45315686D01*
X20050000Y-46278871D01*
X20246323Y-46226267D01*
X20452483Y-46130133D01*
X20638812Y-45999664D01*
X20799664Y-45838812D01*
X20930133Y-45652483D01*
X21026267Y-45446323D01*
X21078872Y-45250000D01*
X20115686Y-45250000D01*
X20120080Y-45245606D01*
X20172741Y-45154394D01*
X20200000Y-45052661D01*
X20200000Y-44947339D01*
X20172741Y-44845606D01*
X20120080Y-44754394D01*
X20115686Y-44750000D01*
X21078872Y-44750000D01*
X21078871Y-44749999D01*
X22571128Y-44749999D01*
X22571128Y-44750000D01*
X23534314Y-44750000D01*
X23529920Y-44754394D01*
X23477259Y-44845606D01*
X23450000Y-44947339D01*
X23450000Y-45052661D01*
X23477259Y-45154394D01*
X23529920Y-45245606D01*
X23534314Y-45250000D01*
X22571128Y-45250000D01*
X22623732Y-45446323D01*
X22719866Y-45652483D01*
X22850335Y-45838812D01*
X23011187Y-45999664D01*
X23197516Y-46130133D01*
X23403676Y-46226267D01*
X23599999Y-46278871D01*
X23600000Y-46278871D01*
X23600000Y-45315686D01*
X23604394Y-45320080D01*
X23695606Y-45372741D01*
X23797339Y-45400000D01*
X23902661Y-45400000D01*
X24004394Y-45372741D01*
X24095606Y-45320080D01*
X24100000Y-45315686D01*
X24100000Y-46278871D01*
X24296323Y-46226267D01*
X24502483Y-46130133D01*
X24688812Y-45999664D01*
X24849664Y-45838812D01*
X24980133Y-45652483D01*
X25076267Y-45446323D01*
X25128872Y-45250000D01*
X24165686Y-45250000D01*
X24170080Y-45245606D01*
X24222741Y-45154394D01*
X24250000Y-45052661D01*
X24250000Y-44947339D01*
X24222741Y-44845606D01*
X24170080Y-44754394D01*
X24165686Y-44750000D01*
X25128872Y-44750000D01*
X25128871Y-44749999D01*
X26621128Y-44749999D01*
X26621128Y-44750000D01*
X27584314Y-44750000D01*
X27579920Y-44754394D01*
X27527259Y-44845606D01*
X27500000Y-44947339D01*
X27500000Y-45052661D01*
X27527259Y-45154394D01*
X27579920Y-45245606D01*
X27584314Y-45250000D01*
X26621128Y-45250000D01*
X26673732Y-45446323D01*
X26769866Y-45652483D01*
X26900335Y-45838812D01*
X27061187Y-45999664D01*
X27247516Y-46130133D01*
X27453676Y-46226267D01*
X27650000Y-46278871D01*
X27650000Y-45315686D01*
X27654394Y-45320080D01*
X27745606Y-45372741D01*
X27847339Y-45400000D01*
X27952661Y-45400000D01*
X28054394Y-45372741D01*
X28145606Y-45320080D01*
X28150000Y-45315686D01*
X28150000Y-46278871D01*
X28346323Y-46226267D01*
X28552483Y-46130133D01*
X28738812Y-45999664D01*
X28899664Y-45838812D01*
X29030133Y-45652483D01*
X29126267Y-45446323D01*
X29178872Y-45250000D01*
X28215686Y-45250000D01*
X28220080Y-45245606D01*
X28272741Y-45154394D01*
X28300000Y-45052661D01*
X28300000Y-44947339D01*
X28272741Y-44845606D01*
X28220080Y-44754394D01*
X28215686Y-44750000D01*
X29178872Y-44750000D01*
X29178871Y-44749999D01*
X30671128Y-44749999D01*
X30671128Y-44750000D01*
X31634314Y-44750000D01*
X31629920Y-44754394D01*
X31577259Y-44845606D01*
X31550000Y-44947339D01*
X31550000Y-45052661D01*
X31577259Y-45154394D01*
X31629920Y-45245606D01*
X31634314Y-45250000D01*
X30671128Y-45250000D01*
X30723732Y-45446323D01*
X30819866Y-45652483D01*
X30950335Y-45838812D01*
X31111187Y-45999664D01*
X31297516Y-46130133D01*
X31503676Y-46226267D01*
X31700000Y-46278871D01*
X31700000Y-45315686D01*
X31704394Y-45320080D01*
X31795606Y-45372741D01*
X31897339Y-45400000D01*
X32002661Y-45400000D01*
X32104394Y-45372741D01*
X32195606Y-45320080D01*
X32200000Y-45315686D01*
X32200000Y-46278871D01*
X32396323Y-46226267D01*
X32602483Y-46130133D01*
X32788812Y-45999664D01*
X32949664Y-45838812D01*
X33080133Y-45652483D01*
X33176267Y-45446323D01*
X33228872Y-45250000D01*
X32265686Y-45250000D01*
X32270080Y-45245606D01*
X32322741Y-45154394D01*
X32350000Y-45052661D01*
X32350000Y-44947339D01*
X32322741Y-44845606D01*
X32270080Y-44754394D01*
X32265686Y-44750000D01*
X33228872Y-44750000D01*
X33228871Y-44749999D01*
X34721128Y-44749999D01*
X34721128Y-44750000D01*
X35684314Y-44750000D01*
X35679920Y-44754394D01*
X35627259Y-44845606D01*
X35600000Y-44947339D01*
X35600000Y-45052661D01*
X35627259Y-45154394D01*
X35679920Y-45245606D01*
X35684314Y-45250000D01*
X34721128Y-45250000D01*
X34773732Y-45446323D01*
X34869866Y-45652483D01*
X35000335Y-45838812D01*
X35161187Y-45999664D01*
X35347516Y-46130133D01*
X35553676Y-46226267D01*
X35749999Y-46278871D01*
X35750000Y-46278871D01*
X35750000Y-45315686D01*
X35754394Y-45320080D01*
X35845606Y-45372741D01*
X35947339Y-45400000D01*
X36052661Y-45400000D01*
X36154394Y-45372741D01*
X36245606Y-45320080D01*
X36250000Y-45315686D01*
X36250000Y-46278871D01*
X36446323Y-46226267D01*
X36652483Y-46130133D01*
X36838812Y-45999664D01*
X36999664Y-45838812D01*
X37130133Y-45652483D01*
X37226267Y-45446323D01*
X37278872Y-45250000D01*
X36315686Y-45250000D01*
X36320080Y-45245606D01*
X36372741Y-45154394D01*
X36400000Y-45052661D01*
X36400000Y-44947339D01*
X36372741Y-44845606D01*
X36320080Y-44754394D01*
X36315686Y-44750000D01*
X37278872Y-44750000D01*
X37278871Y-44749999D01*
X37226267Y-44553676D01*
X37130133Y-44347516D01*
X36999664Y-44161187D01*
X36838812Y-44000335D01*
X36652483Y-43869866D01*
X36446318Y-43773730D01*
X36250000Y-43721126D01*
X36250000Y-44684314D01*
X36245606Y-44679920D01*
X36154394Y-44627259D01*
X36052661Y-44600000D01*
X35947339Y-44600000D01*
X35845606Y-44627259D01*
X35754394Y-44679920D01*
X35750000Y-44684314D01*
X35750000Y-43721127D01*
X35749999Y-43721126D01*
X35553681Y-43773730D01*
X35347516Y-43869866D01*
X35161187Y-44000335D01*
X35000335Y-44161187D01*
X34869866Y-44347516D01*
X34773732Y-44553676D01*
X34721128Y-44749999D01*
X33228871Y-44749999D01*
X33176267Y-44553676D01*
X33080133Y-44347516D01*
X32949664Y-44161187D01*
X32788812Y-44000335D01*
X32602483Y-43869866D01*
X32396318Y-43773730D01*
X32200000Y-43721126D01*
X32200000Y-44684314D01*
X32195606Y-44679920D01*
X32104394Y-44627259D01*
X32002661Y-44600000D01*
X31897339Y-44600000D01*
X31795606Y-44627259D01*
X31704394Y-44679920D01*
X31700000Y-44684314D01*
X31700000Y-43721127D01*
X31699999Y-43721126D01*
X31503681Y-43773730D01*
X31297516Y-43869866D01*
X31111187Y-44000335D01*
X30950335Y-44161187D01*
X30819866Y-44347516D01*
X30723732Y-44553676D01*
X30671128Y-44749999D01*
X29178871Y-44749999D01*
X29126267Y-44553676D01*
X29030133Y-44347516D01*
X28899664Y-44161187D01*
X28738812Y-44000335D01*
X28552483Y-43869866D01*
X28346318Y-43773730D01*
X28150000Y-43721126D01*
X28150000Y-44684314D01*
X28145606Y-44679920D01*
X28054394Y-44627259D01*
X27952661Y-44600000D01*
X27847339Y-44600000D01*
X27745606Y-44627259D01*
X27654394Y-44679920D01*
X27650000Y-44684314D01*
X27650000Y-43721127D01*
X27649999Y-43721126D01*
X27453681Y-43773730D01*
X27247516Y-43869866D01*
X27061187Y-44000335D01*
X26900335Y-44161187D01*
X26769866Y-44347516D01*
X26673732Y-44553676D01*
X26621128Y-44749999D01*
X25128871Y-44749999D01*
X25076267Y-44553676D01*
X24980133Y-44347516D01*
X24849664Y-44161187D01*
X24688812Y-44000335D01*
X24502483Y-43869866D01*
X24296318Y-43773730D01*
X24100000Y-43721126D01*
X24100000Y-44684314D01*
X24095606Y-44679920D01*
X24004394Y-44627259D01*
X23902661Y-44600000D01*
X23797339Y-44600000D01*
X23695606Y-44627259D01*
X23604394Y-44679920D01*
X23600000Y-44684314D01*
X23600000Y-43721127D01*
X23599999Y-43721126D01*
X23403681Y-43773730D01*
X23197516Y-43869866D01*
X23011187Y-44000335D01*
X22850335Y-44161187D01*
X22719866Y-44347516D01*
X22623732Y-44553676D01*
X22571128Y-44749999D01*
X21078871Y-44749999D01*
X21026267Y-44553676D01*
X20930133Y-44347516D01*
X20799664Y-44161187D01*
X20638812Y-44000335D01*
X20452483Y-43869866D01*
X20246318Y-43773730D01*
X20050000Y-43721126D01*
X20050000Y-44684314D01*
X20045606Y-44679920D01*
X19954394Y-44627259D01*
X19852661Y-44600000D01*
X19747339Y-44600000D01*
X19645606Y-44627259D01*
X19554394Y-44679920D01*
X19550000Y-44684314D01*
X19550000Y-43721127D01*
X19549998Y-43721126D01*
X19394237Y-43762863D01*
X19297290Y-43769218D01*
X19205291Y-43737989D01*
X19132246Y-43673930D01*
X19089276Y-43586794D01*
X19082921Y-43489847D01*
X19114150Y-43397848D01*
X19153717Y-43346282D01*
X24346571Y-38153429D01*
X24427353Y-38099453D01*
X24522641Y-38080499D01*
X27547866Y-38080499D01*
X27547872Y-38080499D01*
X27607483Y-38074091D01*
X27742331Y-38023796D01*
X27857546Y-37937546D01*
X27943796Y-37822331D01*
X27994091Y-37687483D01*
X28000500Y-37627873D01*
X28000500Y-36732167D01*
X38700000Y-36732167D01*
X38700000Y-37329999D01*
X38700001Y-37330000D01*
X39684314Y-37330000D01*
X39679920Y-37334394D01*
X39627259Y-37425606D01*
X39600000Y-37527339D01*
X39600000Y-37632661D01*
X39627259Y-37734394D01*
X39679920Y-37825606D01*
X39684314Y-37830000D01*
X38700001Y-37830000D01*
X38700000Y-37830001D01*
X38700000Y-38427832D01*
X38706401Y-38487371D01*
X38706403Y-38487378D01*
X38756646Y-38622087D01*
X38842810Y-38737187D01*
X38842812Y-38737189D01*
X38957912Y-38823353D01*
X39092621Y-38873596D01*
X39092628Y-38873598D01*
X39152167Y-38879999D01*
X39152175Y-38880000D01*
X39749999Y-38880000D01*
X39750000Y-38879999D01*
X39750000Y-37895686D01*
X39754394Y-37900080D01*
X39845606Y-37952741D01*
X39947339Y-37980000D01*
X40052661Y-37980000D01*
X40154394Y-37952741D01*
X40245606Y-37900080D01*
X40250000Y-37895686D01*
X40250000Y-38879999D01*
X40250001Y-38880000D01*
X40847825Y-38880000D01*
X40847832Y-38879999D01*
X40907371Y-38873598D01*
X40907378Y-38873596D01*
X41042087Y-38823353D01*
X41157187Y-38737189D01*
X41157189Y-38737187D01*
X41243353Y-38622087D01*
X41293596Y-38487378D01*
X41293598Y-38487371D01*
X41299999Y-38427832D01*
X41300000Y-38427825D01*
X41300000Y-37830001D01*
X41299999Y-37830000D01*
X40315686Y-37830000D01*
X40320080Y-37825606D01*
X40372741Y-37734394D01*
X40400000Y-37632661D01*
X40400000Y-37527339D01*
X40372741Y-37425606D01*
X40320080Y-37334394D01*
X40315686Y-37330000D01*
X41299999Y-37330000D01*
X41300000Y-37329999D01*
X41300000Y-36732175D01*
X41299999Y-36732167D01*
X41293598Y-36672628D01*
X41293596Y-36672621D01*
X41243353Y-36537912D01*
X41157189Y-36422812D01*
X41157187Y-36422810D01*
X41042087Y-36336646D01*
X40907378Y-36286403D01*
X40907371Y-36286401D01*
X40847832Y-36280000D01*
X40250001Y-36280000D01*
X40250000Y-36280001D01*
X40250000Y-37264314D01*
X40245606Y-37259920D01*
X40154394Y-37207259D01*
X40052661Y-37180000D01*
X39947339Y-37180000D01*
X39845606Y-37207259D01*
X39754394Y-37259920D01*
X39750000Y-37264314D01*
X39750000Y-36280001D01*
X39749999Y-36280000D01*
X39152167Y-36280000D01*
X39092628Y-36286401D01*
X39092621Y-36286403D01*
X38957912Y-36336646D01*
X38842812Y-36422810D01*
X38842810Y-36422812D01*
X38756646Y-36537912D01*
X38706403Y-36672621D01*
X38706401Y-36672628D01*
X38700000Y-36732167D01*
X28000500Y-36732167D01*
X28000499Y-34602638D01*
X28019453Y-34507351D01*
X28073424Y-34426575D01*
X31927070Y-30572930D01*
X32007852Y-30518954D01*
X32103140Y-30500000D01*
X32499999Y-30500000D01*
X32500000Y-30500000D01*
X32500000Y-23749000D01*
X32518954Y-23653712D01*
X32572930Y-23572930D01*
X32653712Y-23518954D01*
X32749000Y-23500000D01*
X38516995Y-23500000D01*
X38592290Y-23514977D01*
G37*
G04 #@! TD.AperFunction*
G04 #@! TA.AperFunction,Conductor*
G36*
X42219920Y-44834394D02*
G01*
X42167259Y-44925606D01*
X42140000Y-45027339D01*
X42140000Y-45132661D01*
X42167259Y-45234394D01*
X42219920Y-45325606D01*
X42224314Y-45330000D01*
X40315686Y-45330000D01*
X40320080Y-45325606D01*
X40372741Y-45234394D01*
X40400000Y-45132661D01*
X40400000Y-45027339D01*
X40372741Y-44925606D01*
X40320080Y-44834394D01*
X40315686Y-44830000D01*
X42224314Y-44830000D01*
X42219920Y-44834394D01*
G37*
G04 #@! TD.AperFunction*
G04 #@! TD*
M02*
